<svg width="25" height="25" fill="none" xmlns="http://www.w3.org/2000/svg"><path d="M12.5 0C5.615 0 0 5.594 0 12.5S5.615 25 12.5 25 25 19.385 25 12.5 19.385 0 12.5 0zm0 23.236c-5.917 0-10.736-4.82-10.736-10.736 0-5.917 4.82-10.736 10.736-10.736S23.236 6.584 23.236 12.5 18.416 23.236 12.5 23.236z" fill="#C4C4C4"/><path d="M15.383 6.26a.861.861 0 0 0-.624-.257.898.898 0 0 0-.624.258l-5.68 5.68a.862.862 0 0 0-.258.623c0 .237.086.452.258.624l5.68 5.68a.883.883 0 0 0 1.248-1.247l-5.056-5.056 5.056-5.056a.883.883 0 0 0 0-1.248z" fill="#C4C4C4"/></svg>