<svg width="44" height="44" fill="none" xmlns="http://www.w3.org/2000/svg"><path d="M22 44c12.117 0 22-9.845 22-22S34.117 0 22 0 0 9.883 0 22s9.883 22 22 22zm0-40.895c10.413 0 18.895 8.482 18.895 18.895S32.413 40.895 22 40.895 3.105 32.413 3.105 22 11.587 3.105 22 3.105z" fill="#328DD8"/><path d="M16.925 32.981c.303.303.682.454 1.098.454a1.58 1.58 0 0 0 1.098-.454l9.997-9.996c.303-.303.454-.682.454-1.098 0-.417-.151-.796-.454-1.099l-9.997-9.996a1.554 1.554 0 0 0-2.196 2.196l8.898 8.899-8.898 8.898a1.554 1.554 0 0 0 0 2.196z" fill="#328DD8"/></svg>