<svg width="44" height="44" fill="none" xmlns="http://www.w3.org/2000/svg"><path d="M22 0C9.883 0 0 9.845 0 22s9.883 22 22 22 22-9.883 22-22S34.117 0 22 0zm0 40.895C11.587 40.895 3.105 32.413 3.105 22S11.587 3.105 22 3.105 40.895 11.587 40.895 22 32.413 40.895 22 40.895z" fill="#328DD8"/><path d="M27.075 11.019a1.517 1.517 0 0 0-1.098-.454 1.58 1.58 0 0 0-1.098.454l-9.997 9.996a1.517 1.517 0 0 0-.454 1.098c0 .417.151.796.454 1.099l9.997 9.996a1.554 1.554 0 0 0 2.196-2.196l-8.898-8.899 8.898-8.898a1.554 1.554 0 0 0 0-2.196z" fill="#328DD8"/></svg>