<svg width="308" height="75" fill="none" xmlns="http://www.w3.org/2000/svg"><path d="M54 37.5c0 8.847-1.878 16.806-4.865 22.517C46.122 65.778 42.135 69 38 69s-8.122-3.223-11.135-8.983C23.878 54.307 22 46.347 22 37.5s1.878-16.806 4.865-22.517C29.878 9.223 33.865 6 38 6s8.122 3.223 11.135 8.982C52.122 20.694 54 28.654 54 37.5z" stroke="#5DA8DE" stroke-width="2"/><path d="M49.314 26.186c6.255 6.256 10.556 13.212 12.482 19.363 1.942 6.202 1.402 11.3-1.522 14.225-2.924 2.924-8.023 3.464-14.225 1.522-6.151-1.926-13.107-6.227-19.363-12.482-6.255-6.256-10.556-13.212-12.482-19.363-1.942-6.202-1.402-11.3 1.522-14.225 2.924-2.924 8.023-3.464 14.225-1.522 6.151 1.926 13.107 6.227 19.363 12.482z" stroke="#5DA8DE" stroke-width="2"/><path d="M38 53.5c-8.847 0-16.806-1.878-22.517-4.865-5.76-3.013-8.983-7-8.983-11.135s3.223-8.122 8.982-11.135C21.194 23.378 29.154 21.5 38 21.5c8.847 0 16.806 1.878 22.517 4.865 5.76 3.013 8.983 7 8.983 11.135s-3.223 8.122-8.983 11.135C54.807 51.622 46.847 53.5 38 53.5z" stroke="#5DA8DE" stroke-width="2"/><path d="M50.329 50.065c-6.663 6.662-14.106 11.247-20.735 13.288-6.654 2.05-12.349 1.506-15.702-1.848-3.353-3.353-3.897-9.048-1.848-15.701 2.042-6.63 6.627-14.073 13.289-20.735 6.662-6.663 14.105-11.247 20.735-13.289 6.653-2.05 12.348-1.505 15.701 1.848 3.354 3.353 3.898 9.048 1.849 15.702-2.042 6.63-6.627 14.073-13.29 20.735z" stroke="#3886CA"/><path d="M50 50.394c-6.571 6.57-13.931 11.073-20.5 13.055-6.591 1.99-12.252 1.412-15.608-1.944-3.356-3.355-3.933-9.016-1.944-15.608 1.983-6.568 6.485-13.928 13.055-20.499 6.57-6.57 13.93-11.072 20.5-13.054 6.59-1.99 12.251-1.412 15.607 1.943 3.356 3.356 3.933 9.017 1.944 15.608-1.983 6.569-6.484 13.929-13.055 20.5z" stroke="#3886CA"/><path d="M49.645 50.749c-6.472 6.472-13.742 10.884-20.246 12.803-6.524 1.925-12.148 1.312-15.507-2.047-3.358-3.358-3.971-8.983-2.047-15.507 1.919-6.503 6.332-13.773 12.803-20.245C31.12 19.28 38.392 14.868 44.894 12.95c6.524-1.925 12.148-1.312 15.507 2.047 3.358 3.358 3.971 8.982 2.047 15.507-1.919 6.503-6.332 13.773-12.803 20.245z" stroke="#3886CA"/><path d="M49.306 51.088c-6.378 6.377-13.562 10.705-20.003 12.563-6.46 1.863-12.05 1.215-15.41-2.146-3.362-3.36-4.01-8.95-2.146-15.41 1.857-6.441 6.185-13.626 12.563-20.003 6.377-6.377 13.561-10.705 20.002-12.563 6.46-1.863 12.05-1.216 15.41 2.146 3.362 3.36 4.01 8.95 2.146 15.41-1.857 6.441-6.185 13.626-12.563 20.003z" stroke="#3886CA"/><path d="M49.056 51.338c-6.308 6.307-13.43 10.572-19.824 12.385-6.413 1.818-11.977 1.145-15.34-2.218-3.363-3.363-4.035-8.927-2.218-15.34 1.813-6.394 6.078-13.516 12.386-19.823 6.308-6.308 13.429-10.573 19.824-12.386 6.413-1.818 11.977-1.145 15.34 2.218 3.363 3.363 4.035 8.927 2.217 15.34-1.812 6.394-6.077 13.516-12.385 19.824z" stroke="#3886CA"/><path d="M102.98 36h-4.29v-8.4h-9.45V36h-4.26V15.99h4.26v7.86h9.45v-7.86h4.29V36zm16.153-1.83c-1.4 1.46-3.26 2.19-5.58 2.19-2.32 0-4.18-.73-5.58-2.19-1.38-1.48-2.07-3.29-2.07-5.43 0-2.14.69-3.94 2.07-5.4 1.4-1.46 3.26-2.19 5.58-2.19 2.32 0 4.18.73 5.58 2.19 1.4 1.46 2.1 3.26 2.1 5.4 0 2.14-.7 3.95-2.1 5.43zm-8.28-2.4c.66.8 1.56 1.2 2.7 1.2 1.14 0 2.04-.4 2.7-1.2.68-.82 1.02-1.83 1.02-3.03 0-1.18-.34-2.17-1.02-2.97-.66-.82-1.56-1.23-2.7-1.23-1.14 0-2.04.41-2.7 1.23-.66.8-.99 1.79-.99 2.97 0 1.2.33 2.21.99 3.03zM133.51 36h-9.45V21.51h9.18c1.4 0 2.49.36 3.27 1.08.78.72 1.17 1.6 1.17 2.64 0 .84-.23 1.55-.69 2.13-.46.58-1.05.97-1.77 1.17.8.18 1.46.6 1.98 1.26s.78 1.42.78 2.28c0 1.14-.4 2.08-1.2 2.82-.78.74-1.87 1.11-3.27 1.11zm-.93-3.12c.46 0 .82-.12 1.08-.36.28-.24.42-.57.42-.99 0-.38-.14-.7-.42-.96-.26-.26-.62-.39-1.08-.39h-4.71v2.7h4.71zm-.12-5.82c.4 0 .72-.11.96-.33.26-.24.39-.53.39-.87 0-.36-.12-.65-.36-.87-.24-.24-.57-.36-.99-.36h-4.59v2.43h4.59zm9.178-5.55h3.81v4.98h4.95c1.6 0 2.84.45 3.72 1.35.88.9 1.32 2.03 1.32 3.39 0 1.34-.45 2.47-1.35 3.39-.9.92-2.13 1.38-3.69 1.38h-8.76V21.51zm8.19 8.16h-4.38v3.12h4.38c.52 0 .93-.14 1.23-.42.32-.3.48-.68.48-1.14 0-.46-.16-.83-.48-1.11-.3-.3-.71-.45-1.23-.45zm11.34 6.33h-3.84V21.51h3.84V36zm7.421 0h-3.66V21.51h3.81v8.76l5.97-8.76h3.84V36h-3.81v-9.09l-6.15 9.09zm8.4-18.57c-1.3 1.76-3.05 2.64-5.25 2.64-2.18 0-3.94-.88-5.28-2.64l1.68-1.41c.88 1.24 2.08 1.86 3.6 1.86 1.48 0 2.67-.62 3.57-1.86l1.68 1.41zM211.787 36h-4.29V21.99L201.857 36h-1.86l-5.64-14.01V36h-4.26V15.99h5.97l4.86 12.09 4.86-12.09h6V36zm7.544 0h-3.66V21.51h3.81v8.76l5.97-8.76h3.84V36h-3.81v-9.09l-6.15 9.09zm22.023.36c-1.82 0-3.31-.74-4.47-2.22v7.38h-3.81V21.51h3.81v1.83c1.14-1.46 2.63-2.19 4.47-2.19 1.9 0 3.44.68 4.62 2.04 1.2 1.34 1.8 3.19 1.8 5.55s-.6 4.22-1.8 5.58c-1.18 1.36-2.72 2.04-4.62 2.04zm-1.2-3.39c1.1 0 1.98-.39 2.64-1.17.68-.78 1.02-1.8 1.02-3.06 0-1.24-.34-2.25-1.02-3.03-.66-.78-1.54-1.17-2.64-1.17-.62 0-1.24.16-1.86.48-.62.32-1.09.71-1.41 1.17v5.13c.32.46.79.85 1.41 1.17.64.32 1.26.48 1.86.48z" fill="#4A8AC2"/><path d="M100.544 61h-1.992V47.824L93.104 61h-.816l-5.424-13.176V61h-1.992V44.992h2.856l4.968 12.048 4.992-12.048h2.856V61zm8.894.288c-1.728 0-3.144-.56-4.248-1.68-1.104-1.136-1.656-2.608-1.656-4.416 0-1.696.544-3.128 1.632-4.296 1.088-1.184 2.448-1.776 4.08-1.776 1.712 0 3.064.592 4.056 1.776 1.008 1.168 1.512 2.648 1.512 4.44v.456h-9.384c.08 1.136.496 2.088 1.248 2.856.752.768 1.728 1.152 2.928 1.152 1.44 0 2.632-.488 3.576-1.464l.864 1.176c-1.184 1.184-2.72 1.776-4.608 1.776zm3.6-6.816c-.016-.992-.352-1.88-1.008-2.664-.656-.8-1.592-1.2-2.808-1.2-1.152 0-2.064.392-2.736 1.176a4.413 4.413 0 0 0-1.056 2.688h7.608zm3.324 9.48v-4.44c.592-.112 1.056-.464 1.392-1.056.336-.608.608-1.72.816-3.336l.744-5.712h8.064v10.008h1.344v4.536h-1.8V61h-8.76v2.952h-1.8zm4.536-12.96l-.528 4.344c-.272 2.032-.832 3.392-1.68 4.08h6.888v-8.424h-4.68zM132.911 61h-1.728V49.408h1.8v8.856l6.072-8.856h1.776V61h-1.8v-9.024L132.911 61zm20.706 2.952V61h-9.192V49.408h1.8v10.008h6.048V49.408h1.8v10.008h1.344v4.536h-1.8zM159.606 61h-1.728V49.408h1.8v8.856l6.072-8.856h1.776V61h-1.8v-9.024L159.606 61zm13.314 0h-1.8V49.408h1.8v4.824h6.048v-4.824h1.8V61h-1.8v-5.184h-6.048V61zm16.555.288c-1.712 0-3.104-.576-4.176-1.728-1.072-1.168-1.608-2.624-1.608-4.368 0-1.744.536-3.192 1.608-4.344 1.072-1.152 2.464-1.728 4.176-1.728 1.792 0 3.208.672 4.248 2.016l-1.2 1.104c-.736-1.008-1.72-1.512-2.952-1.512-1.216 0-2.192.416-2.928 1.248-.72.832-1.08 1.904-1.08 3.216 0 1.312.36 2.392 1.08 3.24.736.832 1.712 1.248 2.928 1.248s2.2-.504 2.952-1.512l1.2 1.104c-1.04 1.344-2.456 2.016-4.248 2.016zm16.97-.288h-2.304l-4.176-5.208-1.92 1.896V61h-1.8V49.408h1.8v6.168l6.096-6.168h2.28l-5.136 5.256 5.16 6.336zm3.856 0h-1.728V49.408h1.8v8.856l6.072-8.856h1.776V61h-1.8v-9.024L210.301 61zm13.243 0h-1.728V49.408h1.8v8.856l6.072-8.856h1.776V61h-1.8v-9.024L223.544 61zm7.296-15.024c-1.04 1.408-2.44 2.112-4.2 2.112-1.744 0-3.152-.704-4.224-2.112l.888-.768c.832 1.152 1.944 1.728 3.336 1.728 1.408 0 2.512-.576 3.312-1.728l.888.768zm19.597 17.976V61h-9.192V49.408h1.8v10.008h6.048V49.408h1.8v10.008h1.344v4.536h-1.8zm9.493-2.664c-1.728 0-3.144-.56-4.248-1.68-1.104-1.136-1.656-2.608-1.656-4.416 0-1.696.544-3.128 1.632-4.296 1.088-1.184 2.448-1.776 4.08-1.776 1.712 0 3.064.592 4.056 1.776 1.008 1.168 1.512 2.648 1.512 4.44v.456h-9.384c.08 1.136.496 2.088 1.248 2.856.752.768 1.728 1.152 2.928 1.152 1.44 0 2.632-.488 3.576-1.464l.864 1.176c-1.184 1.184-2.72 1.776-4.608 1.776zm3.6-6.816c-.016-.992-.352-1.88-1.008-2.664-.656-.8-1.592-1.2-2.808-1.2-1.152 0-2.064.392-2.736 1.176a4.413 4.413 0 0 0-1.056 2.688h7.608zM270.022 61h-1.8V49.408h1.8v4.824h6.048v-4.824h1.8V61h-1.8v-5.184h-6.048V61zm15.354 0h-1.8V50.992h-3.36v-1.584h8.544v1.584h-3.384V61zm11.456.288c-1.632 0-2.936-.68-3.912-2.04v6.168h-1.8V49.408h1.8v1.728a4.806 4.806 0 0 1 1.68-1.464 4.66 4.66 0 0 1 2.232-.552c1.536 0 2.776.552 3.72 1.656.96 1.088 1.44 2.56 1.44 4.416 0 1.856-.48 3.336-1.44 4.44-.944 1.104-2.184 1.656-3.72 1.656zm-.456-1.608c1.136 0 2.04-.416 2.712-1.248.672-.848 1.008-1.928 1.008-3.24 0-1.312-.336-2.384-1.008-3.216-.672-.832-1.576-1.248-2.712-1.248-.688 0-1.36.184-2.016.552-.64.352-1.12.784-1.44 1.296v5.232c.32.528.8.976 1.44 1.344a4.216 4.216 0 0 0 2.016.528z" fill="#5DA8DE"/></svg>