<svg width="171" height="36" viewBox="0 0 171 36" fill="none" xmlns="http://www.w3.org/2000/svg">
<path d="M26.1538 17.9578C26.1538 22.7263 25.1418 27.0185 23.5297 30.1004C21.9051 33.2062 19.7482 34.9578 17.5 34.9578C15.2518 34.9578 13.0948 33.2062 11.4703 30.1004C9.85823 27.0185 8.84615 22.7263 8.84615 17.9578C8.84615 13.1893 9.85823 8.89708 11.4703 5.81519C13.0948 2.70944 15.2518 0.957809 17.5 0.957809C19.7482 0.957809 21.9051 2.70944 23.5297 5.81519C25.1418 8.89708 26.1538 13.1893 26.1538 17.9578Z" stroke="#5DA8DE"/>
<path d="M23.6192 11.8386C26.991 15.2105 29.3105 18.9612 30.3498 22.2803C31.3971 25.6251 31.1105 28.3889 29.5208 29.9786C27.9311 31.5683 25.1673 31.855 21.8225 30.8076C18.5034 29.7683 14.7526 27.4488 11.3808 24.077C8.00899 20.7052 5.68957 16.9545 4.65024 13.6353C3.60287 10.2905 3.8895 7.5267 5.47919 5.937C7.06889 4.34731 9.8327 4.06068 13.1775 5.10805C16.4967 6.14737 20.2474 8.4668 23.6192 11.8386Z" stroke="#5DA8DE"/>
<path d="M17.5 26.6116C12.7315 26.6116 8.43927 25.5996 5.35738 23.9875C2.25163 22.363 0.5 20.206 0.5 17.9578C0.5 15.7096 2.25163 13.5526 5.35738 11.9281C8.43927 10.316 12.7315 9.30395 17.5 9.30396C22.2685 9.30396 26.5607 10.316 29.6426 11.9281C32.7484 13.5527 34.5 15.7096 34.5 17.9578C34.5 20.206 32.7484 22.363 29.6426 23.9875C26.5607 25.5996 22.2685 26.6116 17.5 26.6116Z" stroke="#5DA8DE"/>
<path d="M23.9754 24.5602C20.4092 28.1264 16.4327 30.572 12.9057 31.6583C9.35442 32.7521 6.39733 32.4359 4.68203 30.7205C2.96672 29.0052 2.65042 26.0482 3.74424 22.4969C4.83058 18.9699 7.27614 14.9934 10.8423 11.4272C14.4085 7.86101 18.385 5.41545 21.912 4.32911C25.4633 3.23529 28.4204 3.55159 30.1357 5.26689C31.851 6.9822 32.1673 9.93929 31.0735 13.4905C29.9871 17.0175 27.5416 20.9941 23.9754 24.5602Z" stroke="#3886CA"/>
<path d="M23.7979 24.7377C20.2814 28.2542 16.3502 30.655 12.8564 31.7095C9.33997 32.7708 6.39985 32.4384 4.68204 30.7206C2.96423 29.0027 2.63179 26.0626 3.6931 22.5462C4.74757 19.0524 7.1484 15.1212 10.6649 11.6047C14.1813 8.08825 18.1125 5.68742 21.6063 4.63295C25.1228 3.57164 28.0629 3.90408 29.7807 5.62189C31.4985 7.3397 31.831 10.2798 30.7696 13.7963C29.7152 17.2901 27.3143 21.2213 23.7979 24.7377Z" stroke="#3886CA"/>
<path d="M23.607 24.9287C20.144 28.3916 16.2616 30.7443 12.8035 31.7645C9.32446 32.7909 6.40257 32.4411 4.68204 30.7206C2.96151 29 2.61167 26.0781 3.63806 22.5991C4.65829 19.141 7.01099 15.2586 10.4739 11.7956C13.9368 8.33273 17.8193 5.98002 21.2774 4.95979C24.7564 3.93341 27.6783 4.28324 29.3988 6.00377C31.1194 7.7243 31.4692 10.6462 30.4428 14.1252C29.4226 17.5833 27.0699 21.4658 23.607 24.9287Z" stroke="#3886CA"/>
<path d="M23.4244 25.1112C20.0127 28.5229 16.1769 30.8296 12.7529 31.8171C9.30966 32.8102 6.40519 32.4437 4.68203 30.7205C2.95887 28.9974 2.59238 26.0929 3.58544 22.6496C4.57294 19.2256 6.87965 15.3899 10.2914 11.9782C13.7031 8.56645 17.5388 6.25974 20.9628 5.27224C24.4061 4.27918 27.3106 4.64566 29.0337 6.36883C30.7569 8.09199 31.1234 10.9965 30.1303 14.4397C29.1428 17.8637 26.8361 21.6995 23.4244 25.1112Z" stroke="#3886CA"/>
<path d="M23.29 25.2456C19.916 28.6196 16.1146 30.8925 12.7158 31.8559C9.2988 32.8244 6.40715 32.4457 4.68204 30.7205C2.95692 28.9954 2.57816 26.1038 3.5467 22.6868C4.51012 19.288 6.78296 15.4866 10.1569 12.1126C13.5309 8.73861 17.3323 6.46578 20.7312 5.50236C24.1481 4.53382 27.0398 4.91258 28.7649 6.63769C30.49 8.36281 30.8688 11.2545 29.9002 14.6714C28.9368 18.0703 26.664 21.8717 23.29 25.2456Z" stroke="#3886CA"/>
<path d="M52.4892 17.1501H50.1792V12.627H45.0908V17.1501H42.7969V6.37549H45.0908V10.6078H50.1792V6.37549H52.4892V17.1501Z" fill="#4A8AC2"/>
<path d="M61.1872 16.1647C60.4334 16.9509 59.4318 17.3439 58.1826 17.3439C56.9334 17.3439 55.9318 16.9509 55.178 16.1647C54.4349 15.3678 54.0634 14.3932 54.0634 13.2409C54.0634 12.0886 54.4349 11.1193 55.178 10.3332C55.9318 9.54703 56.9334 9.15395 58.1826 9.15395C59.4318 9.15395 60.4334 9.54703 61.1872 10.3332C61.9411 11.1193 62.318 12.0886 62.318 13.2409C62.318 14.3932 61.9411 15.3678 61.1872 16.1647ZM56.7287 14.8724C57.0841 15.3032 57.5687 15.5186 58.1826 15.5186C58.7964 15.5186 59.2811 15.3032 59.6364 14.8724C60.0026 14.4309 60.1857 13.887 60.1857 13.2409C60.1857 12.6055 60.0026 12.0724 59.6364 11.6416C59.2811 11.2001 58.7964 10.9793 58.1826 10.9793C57.5687 10.9793 57.0841 11.2001 56.7287 11.6416C56.3734 12.0724 56.1957 12.6055 56.1957 13.2409C56.1957 13.887 56.3734 14.4309 56.7287 14.8724Z" fill="#4A8AC2"/>
<path d="M68.9284 17.1501H63.84V9.3478H68.783C69.5369 9.3478 70.1238 9.54164 70.5438 9.92933C70.9638 10.317 71.1738 10.7909 71.1738 11.3509C71.1738 11.8032 71.05 12.1855 70.8023 12.4978C70.5546 12.8101 70.2369 13.0201 69.8492 13.1278C70.28 13.2247 70.6354 13.4509 70.9154 13.8063C71.1954 14.1616 71.3354 14.5709 71.3354 15.0339C71.3354 15.6478 71.12 16.1539 70.6892 16.5524C70.2692 16.9509 69.6823 17.1501 68.9284 17.1501ZM68.4277 15.4701C68.6754 15.4701 68.8692 15.4055 69.0092 15.2763C69.16 15.147 69.2354 14.9693 69.2354 14.7432C69.2354 14.5386 69.16 14.3663 69.0092 14.2263C68.8692 14.0863 68.6754 14.0163 68.4277 14.0163H65.8915V15.4701H68.4277ZM68.363 12.3363C68.5784 12.3363 68.7507 12.277 68.88 12.1586C69.02 12.0293 69.09 11.8732 69.09 11.6901C69.09 11.4963 69.0254 11.3401 68.8961 11.2216C68.7669 11.0924 68.5892 11.0278 68.363 11.0278H65.8915V12.3363H68.363Z" fill="#4A8AC2"/>
<path d="M73.3051 9.3478H75.3567V12.0293H78.022C78.8836 12.0293 79.5513 12.2716 80.0251 12.7563C80.499 13.2409 80.7359 13.8493 80.7359 14.5816C80.7359 15.3032 80.4936 15.9116 80.009 16.407C79.5243 16.9024 78.862 17.1501 78.022 17.1501H73.3051V9.3478ZM77.7151 13.7416H75.3567V15.4216H77.7151C77.9951 15.4216 78.2159 15.3463 78.3774 15.1955C78.5497 15.0339 78.6359 14.8293 78.6359 14.5816C78.6359 14.334 78.5497 14.1347 78.3774 13.984C78.2159 13.8224 77.9951 13.7416 77.7151 13.7416ZM83.8213 17.1501H81.7536V9.3478H83.8213V17.1501Z" fill="#4A8AC2"/>
<path d="M87.8172 17.1501H85.8464V9.3478H87.898V14.0647L91.1126 9.3478H93.1803V17.1501H91.1287V12.2555L87.8172 17.1501ZM92.3403 7.15087C91.6403 8.09857 90.698 8.57241 89.5134 8.57241C88.3395 8.57241 87.3918 8.09857 86.6703 7.15087L87.5749 6.39164C88.0487 7.05933 88.6949 7.39318 89.5134 7.39318C90.3103 7.39318 90.951 7.05933 91.4357 6.39164L92.3403 7.15087Z" fill="#4A8AC2"/>
<path d="M111.078 17.1501H108.768V9.60626L105.731 17.1501H104.729L101.692 9.60626V17.1501H99.3985V6.37549H102.613L105.23 12.8855L107.847 6.37549H111.078V17.1501Z" fill="#4A8AC2"/>
<path d="M115.14 17.1501H113.169V9.3478H115.221V14.0647L118.435 9.3478H120.503V17.1501H118.451V12.2555L115.14 17.1501Z" fill="#4A8AC2"/>
<path d="M126.998 17.3439C126.018 17.3439 125.216 16.9455 124.591 16.1486V20.1224H122.54V9.3478H124.591V10.3332C125.205 9.54703 126.007 9.15395 126.998 9.15395C128.021 9.15395 128.85 9.5201 129.486 10.2524C130.132 10.974 130.455 11.9701 130.455 13.2409C130.455 14.5116 130.132 15.5132 129.486 16.2455C128.85 16.9778 128.021 17.3439 126.998 17.3439ZM126.352 15.5186C126.944 15.5186 127.418 15.3086 127.773 14.8886C128.14 14.4686 128.323 13.9193 128.323 13.2409C128.323 12.5732 128.14 12.0293 127.773 11.6093C127.418 11.1893 126.944 10.9793 126.352 10.9793C126.018 10.9793 125.684 11.0655 125.35 11.2378C125.017 11.4101 124.763 11.6201 124.591 11.8678V14.6301C124.763 14.8778 125.017 15.0878 125.35 15.2601C125.695 15.4324 126.029 15.5186 126.352 15.5186Z" fill="#4A8AC2"/>
<path d="M51.9468 31.3974H50.7764V23.6559L47.5754 31.3974H47.096L43.9092 23.6559V31.3974H42.7388V21.992H44.4168L47.3357 29.0707L50.2687 21.992H51.9468V31.3974Z" fill="#5DA8DE"/>
<path d="M57.1725 31.5666C56.1572 31.5666 55.3253 31.2376 54.6766 30.5795C54.028 29.9121 53.7037 29.0472 53.7037 27.9849C53.7037 26.9884 54.0233 26.1471 54.6625 25.4608C55.3018 24.7652 56.1008 24.4174 57.0597 24.4174C58.0656 24.4174 58.8599 24.7652 59.4428 25.4608C60.035 26.1471 60.3312 27.0167 60.3312 28.0695V28.3375H54.8176C54.8647 29.0049 55.1091 29.5642 55.5509 30.0155C55.9927 30.4667 56.5662 30.6923 57.2712 30.6923C58.1173 30.6923 58.8176 30.4056 59.3723 29.8322L59.8799 30.5231C59.1843 31.2188 58.2818 31.5666 57.1725 31.5666ZM59.2877 27.5619C59.2783 26.979 59.0809 26.4573 58.6954 25.9967C58.31 25.5266 57.7601 25.2916 57.0456 25.2916C56.3688 25.2916 55.8329 25.5219 55.4381 25.9826C55.0527 26.4432 54.8458 26.9696 54.8176 27.5619H59.2877Z" fill="#5DA8DE"/>
<path d="M61.2403 33.1318V30.5231C61.5882 30.4573 61.8608 30.2505 62.0582 29.9027C62.2556 29.5454 62.4154 28.8921 62.5376 27.9426L62.9748 24.5866H67.7127V30.4667H68.5024V33.1318H67.4448V31.3974H62.2979V33.1318H61.2403ZM63.9054 25.5172L63.5952 28.0695C63.4354 29.2634 63.1064 30.0625 62.6082 30.4667H66.6552V25.5172H63.9054Z" fill="#5DA8DE"/>
<path d="M70.9637 31.3974H69.9484V24.5866H71.006V29.7899L74.5736 24.5866H75.617V31.3974H74.5595V26.0954L70.9637 31.3974Z" fill="#5DA8DE"/>
<path d="M83.1295 33.1318V31.3974H77.7288V24.5866H78.7864V30.4667H82.3398V24.5866H83.3974V30.4667H84.1871V33.1318H83.1295Z" fill="#5DA8DE"/>
<path d="M86.6484 31.3974H85.6331V24.5866H86.6907V29.7899L90.2582 24.5866H91.3017V31.3974H90.2441V26.0954L86.6484 31.3974Z" fill="#5DA8DE"/>
<path d="M94.471 31.3974H93.4135V24.5866H94.471V27.4209H98.0245V24.5866H99.0821V31.3974H98.0245V28.3516H94.471V31.3974Z" fill="#5DA8DE"/>
<path d="M104.197 31.5666C103.191 31.5666 102.374 31.2282 101.744 30.5513C101.114 29.8651 100.799 29.0096 100.799 27.9849C100.799 26.9602 101.114 26.1095 101.744 25.4326C102.374 24.7558 103.191 24.4174 104.197 24.4174C105.25 24.4174 106.082 24.8122 106.693 25.6018L105.988 26.2505C105.556 25.6582 104.978 25.3621 104.254 25.3621C103.539 25.3621 102.966 25.6065 102.533 26.0954C102.11 26.5842 101.899 27.2141 101.899 27.9849C101.899 28.7558 102.11 29.3903 102.533 29.8886C102.966 30.3774 103.539 30.6218 104.254 30.6218C104.968 30.6218 105.546 30.3257 105.988 29.7335L106.693 30.3821C106.082 31.1718 105.25 31.5666 104.197 31.5666Z" fill="#5DA8DE"/>
<path d="M114.168 31.3974H112.815L110.361 28.3375L109.233 29.4514V31.3974H108.175V24.5866H109.233V28.2105L112.815 24.5866H114.154L111.137 27.6747L114.168 31.3974Z" fill="#5DA8DE"/>
<path d="M116.434 31.3974H115.419V24.5866H116.476V29.7899L120.044 24.5866H121.087V31.3974H120.03V26.0954L116.434 31.3974Z" fill="#5DA8DE"/>
<path d="M124.214 31.3974H123.199V24.5866H124.257V29.7899L127.824 24.5866H128.868V31.3974H127.81V26.0954L124.214 31.3974ZM128.501 22.5701C127.89 23.3974 127.068 23.811 126.033 23.811C125.009 23.811 124.182 23.3974 123.552 22.5701L124.073 22.1189C124.562 22.7957 125.216 23.1342 126.033 23.1342C126.861 23.1342 127.509 22.7957 127.979 22.1189L128.501 22.5701Z" fill="#5DA8DE"/>
<path d="M140.016 33.1318V31.3974H134.615V24.5866H135.673V30.4667H139.226V24.5866H140.284V30.4667H141.073V33.1318H140.016Z" fill="#5DA8DE"/>
<path d="M145.593 31.5666C144.578 31.5666 143.746 31.2376 143.097 30.5795C142.449 29.9121 142.124 29.0472 142.124 27.9849C142.124 26.9884 142.444 26.1471 143.083 25.4608C143.723 24.7652 144.522 24.4174 145.48 24.4174C146.486 24.4174 147.281 24.7652 147.864 25.4608C148.456 26.1471 148.752 27.0167 148.752 28.0695V28.3375H143.238C143.285 29.0049 143.53 29.5642 143.972 30.0155C144.414 30.4667 144.987 30.6923 145.692 30.6923C146.538 30.6923 147.238 30.4056 147.793 29.8322L148.301 30.5231C147.605 31.2188 146.703 31.5666 145.593 31.5666ZM147.708 27.5619C147.699 26.979 147.502 26.4573 147.116 25.9967C146.731 25.5266 146.181 25.2916 145.466 25.2916C144.79 25.2916 144.254 25.5219 143.859 25.9826C143.473 26.4432 143.267 26.9696 143.238 27.5619H147.708Z" fill="#5DA8DE"/>
<path d="M151.522 31.3974H150.465V24.5866H151.522V27.4209H155.076V24.5866H156.134V31.3974H155.076V28.3516H151.522V31.3974Z" fill="#5DA8DE"/>
<path d="M160.544 31.3974H159.486V25.5172H157.512V24.5866H162.532V25.5172H160.544V31.3974Z" fill="#5DA8DE"/>
<path d="M167.275 31.5666C166.316 31.5666 165.55 31.1671 164.976 30.368V33.992H163.919V24.5866H164.976V25.6018C165.23 25.2446 165.559 24.9579 165.963 24.7417C166.368 24.5255 166.805 24.4174 167.275 24.4174C168.177 24.4174 168.906 24.7417 169.46 25.3903C170.024 26.0296 170.307 26.8944 170.307 27.9849C170.307 29.0754 170.024 29.945 169.46 30.5936C168.906 31.2423 168.177 31.5666 167.275 31.5666ZM167.007 30.6218C167.674 30.6218 168.205 30.3774 168.6 29.8886C168.995 29.3903 169.193 28.7558 169.193 27.9849C169.193 27.2141 168.995 26.5842 168.6 26.0954C168.205 25.6065 167.674 25.3621 167.007 25.3621C166.603 25.3621 166.208 25.4702 165.822 25.6865C165.446 25.8933 165.164 26.1471 164.976 26.4479V29.5219C165.164 29.8322 165.446 30.0954 165.822 30.3116C166.208 30.5184 166.603 30.6218 167.007 30.6218Z" fill="#5DA8DE"/>
</svg>
