<svg width="87" height="87" fill="none" xmlns="http://www.w3.org/2000/svg"><path d="M43.5 87C67.459 87 87 67.534 87 43.5S67.459 0 43.5 0 0 19.541 0 43.5 19.541 87 43.5 87zm0-80.86c20.59 0 37.36 16.77 37.36 37.36S64.09 80.86 43.5 80.86 6.14 64.09 6.14 43.5 22.91 6.14 43.5 6.14z" fill="#328DD8"/><path d="M33.467 65.213a2.999 2.999 0 0 0 2.172.898c.748 0 1.572-.3 2.17-.898l19.767-19.766a2.999 2.999 0 0 0 .898-2.172c0-.823-.3-1.572-.898-2.17L37.81 21.337a3.073 3.073 0 0 0-4.343 0 3.073 3.073 0 0 0 0 4.343l17.595 17.594L33.467 60.87a3.073 3.073 0 0 0 0 4.343z" fill="#328DD8"/></svg>