<svg width="34" height="34" fill="none" xmlns="http://www.w3.org/2000/svg"><circle cx="17" cy="17" r="17" fill="#328DD8"/><path d="M23.258 19.916a.563.563 0 0 1-.173.493l-1.637 1.627a.92.92 0 0 1-.29.21 1.195 1.195 0 0 1-.35.11l-.075.006a1.672 1.672 0 0 1-.16.006c-.156 0-.408-.026-.757-.08-.349-.053-.776-.185-1.28-.394-.506-.21-1.078-.524-1.718-.943-.64-.419-1.322-.994-2.044-1.725a13.51 13.51 0 0 1-1.429-1.626 11.6 11.6 0 0 1-.911-1.436 7.74 7.74 0 0 1-.517-1.195 6.334 6.334 0 0 1-.234-.924 3.06 3.06 0 0 1-.037-.856c.016-.115.053-.232.11-.351a.922.922 0 0 1 .21-.29l1.638-1.639a.542.542 0 0 1 .394-.172.46.46 0 0 1 .283.092.858.858 0 0 1 .21.228l1.317 2.502a.6.6 0 0 1 .062.43.768.768 0 0 1-.21.395l-.603.604a.205.205 0 0 0-.043.08.305.305 0 0 0-.019.092c.033.173.107.37.222.592.098.197.25.437.455.72.206.284.497.61.875.98.37.378.697.672.985.881.287.21.527.364.72.462.193.099.34.158.444.179l.153.03a.292.292 0 0 0 .08-.018.207.207 0 0 0 .08-.043l.702-.715a.754.754 0 0 1 .518-.197c.14 0 .25.025.332.074h.012l2.377 1.405c.172.107.275.242.308.406z" fill="#fff"/></svg>