<svg width="40" height="40" fill="none" xmlns="http://www.w3.org/2000/svg"><path d="M20 40c11.015 0 20-8.95 20-20S31.015 0 20 0 0 8.985 0 20s8.985 20 20 20zm0-37.177c9.466 0 17.177 7.71 17.177 17.177 0 9.466-7.71 17.177-17.177 17.177-9.466 0-17.177-7.71-17.177-17.177 0-9.466 7.71-17.177 17.177-17.177z" fill="#fff"/><path d="M15.387 29.983c.276.275.62.413.998.413.345 0 .723-.138.999-.413l9.087-9.088c.276-.275.414-.62.414-.998a1.38 1.38 0 0 0-.414-.999l-9.087-9.087a1.413 1.413 0 0 0-1.997 1.996l8.09 8.09-8.09 8.09c-.55.55-.55 1.445 0 1.996z" fill="#fff"/></svg>