<svg width="30" height="30" viewBox="0 0 30 30" fill="none" xmlns="http://www.w3.org/2000/svg">
<circle cx="15.6522" cy="14.3478" r="12.5435" fill="white" stroke="black"/>
<path d="M19.4707 7.98149H10.5293C9.10213 7.98149 7.94101 9.14261 7.94101 10.5698V19.5112C7.94101 20.9383 9.10213 22.0998 10.5293 22.0998H19.4707C20.8978 22.0998 22.0593 20.9387 22.0593 19.5112V10.5698C22.0593 9.14261 20.8982 7.98149 19.4707 7.98149ZM15 19.6883C12.4374 19.6883 10.3525 17.6034 10.3525 15.0405C10.3525 12.4779 12.4374 10.393 15 10.393C17.5629 10.393 19.6478 12.4779 19.6478 15.0405C19.6478 17.603 17.5625 19.6883 15 19.6883ZM19.7972 11.3539C19.1906 11.3539 18.6973 10.8606 18.6973 10.2543C18.6973 9.64797 19.1906 9.15464 19.7972 9.15464C20.4035 9.15464 20.8968 9.64797 20.8968 10.2543C20.8968 10.8606 20.4035 11.3539 19.7972 11.3539Z" fill="url(#paint0_linear)"/>
<path d="M15 12.3569C13.5207 12.3569 12.3161 13.5608 12.3161 15.0401C12.3161 16.5201 13.5207 17.7243 15 17.7243C16.48 17.7243 17.6835 16.5201 17.6835 15.0401C17.6835 13.5612 16.4796 12.3569 15 12.3569Z" fill="url(#paint1_linear)"/>
<path d="M15 0C6.71606 0 0 6.71606 0 15C0 23.2839 6.71606 30 15 30C23.2839 30 30 23.2839 30 15C30 6.71606 23.2839 0 15 0ZM24.0229 19.5111C24.0229 22.0215 21.9811 24.0634 19.4707 24.0634H10.5293C8.01923 24.0634 5.97707 22.0215 5.97707 19.5111V10.5698C5.97707 8.05967 8.01923 6.01751 10.5293 6.01751H19.4707C21.9811 6.01751 24.0229 8.05967 24.0229 10.5698V19.5111Z" fill="url(#paint2_linear)"/>
<defs>
<linearGradient id="paint0_linear" x1="15.0002" y1="7.98149" x2="15.0002" y2="22.0998" gradientUnits="userSpaceOnUse">
<stop stop-color="#54A5E2"/>
<stop offset="1" stop-color="#3382BE"/>
</linearGradient>
<linearGradient id="paint1_linear" x1="14.9998" y1="12.3569" x2="14.9998" y2="17.7243" gradientUnits="userSpaceOnUse">
<stop stop-color="#54A5E2"/>
<stop offset="1" stop-color="#3382BE"/>
</linearGradient>
<linearGradient id="paint2_linear" x1="15" y1="0" x2="15" y2="30" gradientUnits="userSpaceOnUse">
<stop stop-color="#54A5E2"/>
<stop offset="1" stop-color="#3382BE"/>
</linearGradient>
</defs>
</svg>
