<svg width="45" height="65" viewBox="0 0 45 65" fill="none" xmlns="http://www.w3.org/2000/svg">
<path fill-rule="evenodd" clip-rule="evenodd" d="M19.0978 8.38988C20.9443 17.7023 19.9878 31.225 13.9925 38.7044C12.9414 40.0157 9.57299 43.7144 7.78469 44.1181L7.75945 44.1495C6.11735 44.2083 4.53737 44.0712 3.10367 43.5299C1.61777 42.9688 0.8813 42.1554 0 41.226C0.6351 43.9957 4.25 45.9772 7.7993 46.3676C13.0612 47.3755 20.0455 45.7309 24.7024 44.1526C27.7637 43.115 31.8073 41.0216 34.3458 39.2401C35.4059 38.4961 36.2027 37.8396 37.2879 37.1541C34.6121 42.621 28.9056 46.4613 24.4114 49.5465C37.3473 46.2834 42.6613 37.0961 44.767 24.8447C42.8045 26.9902 34.3671 33.4292 32.0295 35.1308C26.7701 38.9591 16.6085 43.3094 10.0258 43.8364C11.6917 43.679 16.3413 39.4497 17.178 38.4388C19.0207 36.2123 20.5741 33.9857 21.8748 30.5915C25.1504 22.0435 24.4902 16.8617 24.1352 8.48691C25.0796 9.13771 25.7107 10.1149 26.4098 11.1527C31.1463 18.1831 31.0789 26.3848 26.1512 33.2371C25.4643 34.1923 24.5303 34.996 23.9862 35.7897C25.8949 35.2206 28.8782 31.8186 29.9284 30.1051C34.4885 22.6654 33.573 15.8855 29.7211 8.32352C28.4515 6.40932 27.5645 5.199 26.2057 3.7116C25.1045 2.506 23.2201 0.9748 21.5962 0C20.5184 0.4672 19.0656 2.11131 17.8921 2.61801L19.0978 8.38988Z" fill="#6699C2"/>
<path d="M5.34446 52.9143C5.44726 52.9754 5.44726 53.0352 5.34446 53.0963C5.06096 53.1379 4.91797 53.2797 4.91797 53.5229V57.4855C4.91797 57.73 5.06096 57.8717 5.34446 57.912C5.44726 57.9732 5.44726 58.0343 5.34446 58.0955H3.91282C3.81132 58.0343 3.81132 57.9732 3.91282 57.912C4.19762 57.8717 4.3393 57.73 4.3393 57.4855V53.5229C4.3393 53.2394 4.19762 53.0963 3.91282 53.0963H1.7786C1.4951 53.0963 1.35211 53.2394 1.35211 53.5229V57.4855C1.35211 57.73 1.4951 57.8717 1.7786 57.912C1.88 57.9732 1.88 58.0343 1.7786 58.0955H0.346802C0.245402 58.0343 0.245402 57.9732 0.346802 57.912C0.630302 57.8717 0.773364 57.73 0.773364 57.4855V53.5229C0.773364 53.2797 0.630302 53.1379 0.346802 53.0963C0.245402 53.0352 0.245402 52.9754 0.346802 52.9143H5.34446ZM8.14969 57.912C8.49439 57.8107 8.72841 57.5973 8.85071 57.2723L10.1915 53.6452C10.2123 53.5034 10.1304 53.4214 9.94829 53.402C9.82609 53.3811 9.80521 53.3304 9.88711 53.2498C10.1915 53.1068 10.4255 52.965 10.5881 52.822C10.6284 52.8024 10.6584 52.792 10.6792 52.792C10.7403 52.792 10.791 52.822 10.8313 52.883L12.6 57.4556C12.7015 57.6792 12.9043 57.8314 13.2087 57.912C13.3101 57.994 13.3101 58.0551 13.2087 58.0955H11.4413C11.319 58.0343 11.319 57.9732 11.4413 57.912C11.7664 57.8107 11.929 57.6988 11.929 57.5778C11.929 57.4959 11.9186 57.4243 11.899 57.3646L11.6545 56.6935C11.5935 56.5517 11.5023 56.4802 11.3801 56.4802H9.64266C9.50086 56.4802 9.39946 56.5517 9.33836 56.6935C9.25636 56.8963 9.16541 57.1513 9.06391 57.4556C9.04321 57.639 9.11467 57.7599 9.27727 57.821C9.35777 57.8614 9.45017 57.8926 9.55157 57.912C9.65307 57.994 9.65307 58.0551 9.55157 58.0955H8.14969C8.02749 58.0343 8.02749 57.9732 8.14969 57.912ZM9.5204 56.1759C9.5009 56.2565 9.54126 56.2968 9.64266 56.2968H11.3503C11.4516 56.2968 11.492 56.2565 11.4712 56.1759L10.6181 53.8584C10.5374 53.7166 10.4555 53.7166 10.3748 53.8584L9.5204 56.1759ZM17.6289 55.9613C17.5274 55.9613 17.4767 56.0133 17.4767 56.1148V57.4855C17.4767 57.73 17.6185 57.8717 17.9033 57.912C18.0047 57.9732 18.0047 58.0343 17.9033 58.0955H16.4703C16.3688 58.0343 16.3688 57.9732 16.4703 57.912C16.755 57.8717 16.8967 57.73 16.8967 57.4855V53.5229C16.8967 53.2797 16.755 53.1379 16.4703 53.0963C16.3688 53.0352 16.3688 52.9754 16.4703 52.9143H18.7265C19.356 52.9143 19.8332 53.0768 20.1583 53.402C20.4223 53.6659 20.555 54.0014 20.555 54.4072C20.555 54.8546 20.4432 55.1901 20.2195 55.4138C19.8541 55.7792 19.356 55.9613 18.7265 55.9613H17.6289ZM18.4521 55.7792C18.9398 55.7792 19.3351 55.6271 19.6408 55.3214C19.8228 55.1394 19.9151 54.8442 19.9151 54.4384C19.9151 54.0314 19.8034 53.7166 19.5796 53.493C19.3157 53.229 18.9489 53.0963 18.4821 53.0963H17.9644C17.6393 53.0963 17.4767 53.2589 17.4767 53.584V55.4437C17.4767 55.6674 17.5886 55.7792 17.8109 55.7792H18.4521ZM26.2238 57.1201C25.8987 57.8523 25.4422 58.2176 24.8518 58.2176C24.5683 58.2176 24.3342 58.1266 24.1509 57.9433C23.9284 57.7195 23.8167 57.466 23.8167 57.1811C23.8167 56.9978 23.8674 56.856 23.9687 56.7546C24.0702 56.6532 24.1716 56.6024 24.2731 56.6024C24.4968 56.6024 24.6086 56.7234 24.6086 56.9679C24.6086 57.0485 24.5787 57.1304 24.5176 57.2111C24.3954 57.3945 24.3342 57.5271 24.3342 57.6078C24.3342 57.6688 24.3849 57.7495 24.4864 57.8523C24.5878 57.9537 24.71 58.0044 24.8518 58.0044C25.3603 58.0044 25.7465 57.6897 26.0106 57.0589L24.4252 53.5229C24.3238 53.32 24.1613 53.1782 23.9376 53.0963C23.8167 53.0352 23.8167 52.9754 23.9376 52.9143H25.4319C25.5332 52.9754 25.5332 53.0352 25.4319 53.0963C25.1874 53.1782 25.0664 53.2693 25.0664 53.3707C25.0664 53.5333 25.0859 53.6555 25.1262 53.7375L26.285 56.2669C26.3461 56.3684 26.4072 56.3579 26.4683 56.2357L27.5048 53.9195C27.5646 53.7375 27.5958 53.6049 27.5958 53.5229C27.5958 53.32 27.4528 53.1782 27.1693 53.0963C27.0471 53.0352 27.0471 52.9754 27.1693 52.9143H28.5712C28.6726 52.9754 28.6726 53.0352 28.5712 53.0963C28.185 53.2185 27.9313 53.4123 27.8091 53.6764L26.2238 57.1201ZM36.0387 57.6078C35.6524 58.0148 35.0736 58.2176 34.3012 58.2176C33.5092 58.2176 32.8484 57.9537 32.3206 57.4243C31.7913 56.8963 31.5272 56.2565 31.5272 55.5049C31.5272 54.7532 31.7913 54.1133 32.3206 53.584C32.8484 53.056 33.5092 52.792 34.3012 52.792C34.9722 52.792 35.5301 52.883 35.9775 53.0665V53.9507C35.958 54.0717 35.9059 54.0821 35.8254 53.9807C35.5003 53.3097 34.9826 52.9754 34.2713 52.9754C33.7628 52.9754 33.2959 53.1887 32.8693 53.6152C32.4012 54.0821 32.1671 54.7129 32.1671 55.5049C32.1671 56.2774 32.4012 56.8963 32.8693 57.3646C33.2959 57.7911 33.7732 58.0044 34.3012 58.0044C35.0529 58.0044 35.5809 57.5674 35.8865 56.6935C35.9476 56.5713 35.9983 56.5713 36.0387 56.6935V57.6078ZM39.3614 57.912C39.7061 57.8107 39.9401 57.5973 40.0623 57.2723L41.4032 53.6452C41.4239 53.5034 41.342 53.4214 41.16 53.402C41.0377 53.3811 41.0169 53.3304 41.0988 53.2498C41.4032 53.1068 41.6372 52.965 41.7998 52.822C41.8401 52.8024 41.87 52.792 41.8909 52.792C41.952 52.792 42.0027 52.822 42.043 52.883L43.8117 57.4556C43.9131 57.6792 44.1159 57.8314 44.4203 57.912C44.5217 57.994 44.5217 58.0551 44.4203 58.0955H42.6529C42.5307 58.0343 42.5307 57.9732 42.6529 57.912C42.9781 57.8107 43.1406 57.6988 43.1406 57.5778C43.1406 57.4959 43.1303 57.4243 43.1107 57.3646L42.8662 56.6935C42.8051 56.5517 42.714 56.4802 42.5918 56.4802H40.8543C40.7126 56.4802 40.6112 56.5517 40.55 56.6935C40.4681 56.8963 40.3771 57.1513 40.2756 57.4556C40.2547 57.639 40.3264 57.7599 40.489 57.821C40.5695 57.8614 40.6619 57.8926 40.7633 57.912C40.8648 57.994 40.8648 58.0551 40.7633 58.0955H39.3614C39.2391 58.0343 39.2391 57.9732 39.3614 57.912ZM40.7321 56.1759C40.7126 56.2565 40.7529 56.2968 40.8543 56.2968H42.5619C42.6633 56.2968 42.7036 56.2565 42.6829 56.1759L41.8297 53.8584C41.7491 53.7166 41.6671 53.7166 41.5865 53.8584L40.7321 56.1759Z" fill="#2B2A29"/>
<path d="M0.00012207 60.141H44.7669V60.5364H0.00012207V60.141Z" fill="#2D2D2D"/>
<path d="M0.338925 64.2937C0.472225 64.2748 0.538535 64.2085 0.538535 64.0941V62.3114C0.538535 62.1496 0.448454 62.0594 0.267754 62.04C0.210554 62.0114 0.210554 61.9834 0.267754 61.9548H1.92252L2.09353 62.4679C2.09353 62.544 2.06986 62.5585 2.02236 62.5111C1.85076 62.197 1.5987 62.04 1.2658 62.04H1.10939C0.909194 62.04 0.809394 62.1398 0.809394 62.34V64.0941C0.809394 64.2085 0.876329 64.2748 1.00963 64.2937C1.05703 64.3223 1.05703 64.3509 1.00963 64.3796H0.338925C0.291425 64.3509 0.291425 64.3223 0.338925 64.2937ZM4.05471 62.8105C4.16901 62.7344 4.28769 62.6961 4.41119 62.6961C4.61089 62.6961 4.77773 62.7631 4.91033 62.8963C5.04363 63.029 5.11064 63.2383 5.11064 63.5238C5.11064 63.8281 5.01994 64.0703 4.83924 64.2511C4.71564 64.3746 4.57319 64.4367 4.41119 64.4367C4.26879 64.4367 4.14961 64.4033 4.05471 64.3369C3.99751 64.3181 3.96939 64.3369 3.96939 64.3941V64.665C3.96939 64.7696 4.03095 64.822 4.15455 64.822C4.19285 64.8506 4.19285 64.8786 4.15455 64.9072H3.55564C3.51734 64.8786 3.51734 64.8506 3.55564 64.822C3.67914 64.822 3.74119 64.7696 3.74119 64.665V63.0674C3.74119 63.0198 3.68405 62.9766 3.56955 62.9389C3.51305 62.9103 3.51305 62.8817 3.56955 62.8531C3.73145 62.8154 3.841 62.7393 3.8976 62.6249C3.936 62.5963 3.95969 62.606 3.96939 62.6535V62.7819C3.97859 62.8294 4.00711 62.8391 4.05471 62.8105ZM3.96939 64.1659C4.10209 64.2894 4.24035 64.3509 4.38275 64.3509C4.47775 64.3509 4.56345 64.3132 4.63955 64.2371C4.78195 64.0941 4.85385 63.8567 4.85385 63.5238C4.85385 63.267 4.79663 63.0813 4.68213 62.9675C4.57813 62.8629 4.45879 62.8105 4.32549 62.8105C4.21169 62.8105 4.09299 62.8817 3.96939 63.0248V64.1659ZM7.5708 64.4222C7.4375 64.7459 7.2287 64.9072 6.9433 64.9072C6.7248 64.9072 6.61525 64.8409 6.61525 64.7076C6.61525 64.6698 6.62933 64.6363 6.65783 64.6078C6.68653 64.5792 6.72486 64.5652 6.77236 64.5652C6.82896 64.5652 6.88122 64.5937 6.92932 64.6503C6.98592 64.6985 7.04802 64.7222 7.11432 64.7222C7.27622 64.7222 7.39984 64.6029 7.48564 64.3655L6.88611 63.0248C6.83861 62.9005 6.76263 62.8342 6.65783 62.8245C6.62013 62.7965 6.62013 62.7679 6.65783 62.7393H7.24283C7.28113 62.7679 7.28113 62.7965 7.24283 62.8245C7.13803 62.844 7.10043 62.9055 7.12892 63.0101L7.54221 63.9942C7.57081 64.0326 7.59929 64.0326 7.62799 63.9942L7.99861 63.0527C8.03691 62.92 7.99435 62.844 7.87025 62.8245C7.83255 62.7965 7.83255 62.7679 7.87025 62.7393H8.32674C8.36504 62.7679 8.36504 62.7965 8.32674 62.8245C8.23174 62.8342 8.15566 62.92 8.09846 63.0813L7.5708 64.4222ZM10.2885 64.0941C10.2885 64.2274 10.3548 64.2937 10.4881 64.2937C10.5355 64.3223 10.5355 64.3509 10.4881 64.3796H9.86064C9.81314 64.3509 9.81314 64.3223 9.86064 64.2937C9.99334 64.2937 10.0603 64.2274 10.0603 64.0941V63.0248C10.0603 62.8915 9.99334 62.8245 9.86064 62.8245C9.81314 62.7965 9.81314 62.7679 9.86064 62.7393H11.5149C11.5629 62.7679 11.5629 62.7965 11.5149 62.8245C11.3822 62.8245 11.3153 62.8915 11.3153 63.0248V64.0941C11.3153 64.2274 11.3822 64.2937 11.5149 64.2937C11.5629 64.3223 11.5629 64.3509 11.5149 64.3796H10.8874C10.8399 64.3509 10.8399 64.3223 10.8874 64.2937C11.0207 64.2937 11.0869 64.2274 11.0869 64.0941V63.0248C11.0869 62.8915 11.0207 62.8245 10.8874 62.8245H10.4881C10.3548 62.8245 10.2885 62.8915 10.2885 63.0248V64.0941ZM13.4767 64.0941C13.4767 64.2274 13.5429 64.2937 13.6762 64.2937C13.7236 64.3223 13.7236 64.3509 13.6762 64.3796H13.0487C13.0012 64.3509 13.0012 64.3223 13.0487 64.2937C13.1814 64.2937 13.2483 64.2274 13.2483 64.0941V63.0248C13.2483 62.8915 13.1814 62.8245 13.0487 62.8245C13.0012 62.7965 13.0012 62.7679 13.0487 62.7393H14.7029C14.7509 62.7679 14.7509 62.7965 14.7029 62.8245C14.5702 62.8245 14.5033 62.8915 14.5033 63.0248V64.0941C14.5033 64.2274 14.5702 64.2937 14.7029 64.2937C14.7509 64.3223 14.7509 64.3509 14.7029 64.3796H14.0754C14.0279 64.3509 14.0279 64.3223 14.0754 64.2937C14.2087 64.2937 14.275 64.2274 14.275 64.0941V63.0248C14.275 62.8915 14.2087 62.8245 14.0754 62.8245H13.6762C13.5429 62.8245 13.4767 62.8915 13.4767 63.0248V64.0941ZM17.2921 63.4094C17.0261 63.5141 16.8404 63.6187 16.7357 63.7235C16.6499 63.8092 16.6074 63.9091 16.6074 64.0229C16.6074 64.1276 16.6262 64.1987 16.6646 64.2371C16.712 64.2846 16.7692 64.3083 16.8355 64.3083C16.9305 64.3083 17.0827 64.2322 17.2921 64.0801V63.4094ZM17.2921 64.1659C17.0736 64.3461 16.8929 64.4367 16.7499 64.4367C16.6171 64.4367 16.5124 64.3983 16.4363 64.3223C16.3694 64.2559 16.3365 64.1702 16.3365 64.0655C16.3365 63.942 16.3979 63.8183 16.5215 63.6948C16.6359 63.5811 16.8929 63.4568 17.2921 63.3242V63.0674C17.2921 62.9724 17.2634 62.8963 17.2062 62.8391C17.1685 62.8007 17.1064 62.7819 17.0211 62.7819C16.9165 62.7819 16.8215 62.8245 16.7357 62.9103C16.6974 62.9487 16.6785 63.015 16.6785 63.11C16.6785 63.2146 16.6262 63.267 16.5215 63.267C16.4454 63.267 16.4078 63.2146 16.4078 63.11C16.4078 63.0339 16.4552 62.9487 16.5501 62.8531C16.6548 62.7485 16.8118 62.6961 17.0211 62.6961C17.2019 62.6961 17.3346 62.7393 17.4204 62.8245C17.4868 62.8915 17.5203 62.9675 17.5203 63.0527V64.0941C17.5203 64.2274 17.5867 64.2937 17.7199 64.2937C17.7675 64.3223 17.7675 64.3509 17.7199 64.3796H17.2921V64.1659ZM21.9919 62.9815C21.9731 62.9815 21.9494 62.9766 21.9207 62.9675C21.8733 62.9487 21.8349 62.9487 21.8069 62.9675C21.7588 62.9961 21.7211 63.0387 21.6925 63.0959C21.6548 63.172 21.6214 63.2335 21.5928 63.2809C21.555 63.3381 21.5166 63.3905 21.4788 63.438C21.4308 63.4568 21.4266 63.4763 21.4642 63.4952L21.9068 64.1227C22.0016 64.2371 22.0875 64.2937 22.1636 64.2937C22.211 64.3223 22.211 64.3509 22.1636 64.3796H21.5355C21.488 64.3509 21.488 64.3223 21.5355 64.2937C21.631 64.2846 21.6785 64.2511 21.6785 64.1939C21.6785 64.1659 21.6638 64.1324 21.6353 64.0941L21.2933 63.609C21.2744 63.5713 21.241 63.5524 21.1935 63.5524H20.9221V64.0941C20.9221 64.2274 20.989 64.2937 21.1222 64.2937C21.1697 64.3223 21.1697 64.3509 21.1222 64.3796H20.4942C20.4467 64.3509 20.4467 64.3223 20.4942 64.2937C20.6276 64.2937 20.6938 64.2274 20.6938 64.0941V63.0248C20.6938 62.8915 20.6276 62.8245 20.4942 62.8245C20.4467 62.7965 20.4467 62.7679 20.4942 62.7393H21.1222C21.1697 62.7679 21.1697 62.7965 21.1222 62.8245C20.989 62.8245 20.9221 62.8915 20.9221 63.0248V63.4666H21.1222C21.2835 63.4666 21.4071 63.4094 21.4929 63.2955C21.5214 63.2572 21.569 63.1483 21.6353 62.9675C21.6638 62.8915 21.7071 62.8245 21.7637 62.7679C21.8209 62.7107 21.883 62.682 21.9494 62.682C22.0066 62.682 22.0493 62.6961 22.0778 62.7247C22.1065 62.7533 22.1203 62.7916 22.1203 62.8391C22.1203 62.8768 22.1065 62.9103 22.0778 62.9389C22.0493 62.9675 22.0205 62.9815 21.9919 62.9815ZM24.5525 62.6961C24.771 62.6961 24.9567 62.7722 25.1088 62.9244C25.261 63.0765 25.3371 63.2907 25.3371 63.5664C25.3371 63.8422 25.261 64.0563 25.1088 64.2085C24.9567 64.3607 24.771 64.4367 24.5525 64.4367C24.3243 64.4367 24.1387 64.3655 23.9963 64.2225C23.8441 64.0703 23.768 63.8518 23.768 63.5664C23.768 63.2907 23.8441 63.0765 23.9963 62.9244C24.1484 62.7722 24.3341 62.6961 24.5525 62.6961ZM24.5525 62.7819C24.4193 62.7819 24.3007 62.8342 24.196 62.9389C24.0822 63.0527 24.0249 63.2621 24.0249 63.5664C24.0249 63.8707 24.0822 64.0801 24.196 64.1939C24.3007 64.2985 24.4193 64.3509 24.5525 64.3509C24.6858 64.3509 24.8045 64.2985 24.9092 64.1939C25.023 64.0801 25.0803 63.8707 25.0803 63.5664C25.0803 63.2621 25.023 63.0527 24.9092 62.9389C24.8045 62.8342 24.6858 62.7819 24.5525 62.7819ZM28.7249 62.7393C28.7723 62.7679 28.7723 62.7965 28.7249 62.8245C28.5916 62.8342 28.5253 62.9005 28.5253 63.0248V64.0941C28.5253 64.2274 28.5916 64.2937 28.7249 64.2937C28.7723 64.3223 28.7723 64.3509 28.7249 64.3796H28.0974C28.0499 64.3509 28.0499 64.3223 28.0974 64.2937C28.2307 64.2937 28.2969 64.2274 28.2969 64.0941V63.0813C28.2969 62.9578 28.2635 62.9529 28.1971 63.0674L27.6835 64.3509C27.6646 64.3698 27.6457 64.3698 27.6269 64.3509L27.1272 63.0959C27.0985 63.0485 27.07 63.0485 27.042 63.0959V64.0941C27.042 64.2274 27.1084 64.2937 27.2417 64.2937C27.2892 64.3223 27.2892 64.3509 27.2417 64.3796H26.7565C26.7091 64.3509 26.7091 64.3223 26.7565 64.2937C26.8898 64.2937 26.9561 64.2274 26.9561 64.0941V63.0248C26.9561 62.8915 26.8898 62.8245 26.7565 62.8245C26.7091 62.7965 26.7091 62.7679 26.7565 62.7393H27.2271L27.6835 63.8805C27.712 63.9376 27.7406 63.9376 27.7693 63.8805L28.2257 62.7393H28.7249ZM30.5296 64.0941C30.5296 64.2274 30.5959 64.2937 30.7292 64.2937C30.7766 64.3223 30.7766 64.3509 30.7292 64.3796H30.1017C30.0543 64.3509 30.0543 64.3223 30.1017 64.2937C30.2345 64.2937 30.3013 64.2274 30.3013 64.0941V63.0248C30.3013 62.8915 30.2345 62.8245 30.1017 62.8245C30.0543 62.7965 30.0543 62.7679 30.1017 62.7393H31.756C31.804 62.7679 31.804 62.7965 31.756 62.8245C31.6233 62.8245 31.5562 62.8915 31.5562 63.0248V64.0941C31.5562 64.2274 31.6233 64.2937 31.756 64.2937C31.804 64.3223 31.804 64.3509 31.756 64.3796H31.1283C31.0809 64.3509 31.0809 64.3223 31.1283 64.2937C31.2616 64.2937 31.328 64.2274 31.328 64.0941V63.0248C31.328 62.8915 31.2616 62.8245 31.1283 62.8245H30.7292C30.5959 62.8245 30.5296 62.8915 30.5296 63.0248V64.0941ZM34.3451 63.4094C34.0792 63.5141 33.8935 63.6187 33.7888 63.7235C33.703 63.8092 33.6604 63.9091 33.6604 64.0229C33.6604 64.1276 33.6794 64.1987 33.7178 64.2371C33.7652 64.2846 33.8223 64.3083 33.8886 64.3083C33.9836 64.3083 34.1357 64.2322 34.3451 64.0801V63.4094ZM34.3451 64.1659C34.1266 64.3461 33.9458 64.4367 33.8028 64.4367C33.6701 64.4367 33.5655 64.3983 33.4894 64.3223C33.4225 64.2559 33.3896 64.1702 33.3896 64.0655C33.3896 63.942 33.451 63.8183 33.5746 63.6948C33.689 63.5811 33.9458 63.4568 34.3451 63.3242V63.0674C34.3451 62.9724 34.3164 62.8963 34.2593 62.8391C34.2216 62.8007 34.1595 62.7819 34.0742 62.7819C33.9696 62.7819 33.8746 62.8245 33.7888 62.9103C33.7505 62.9487 33.7317 63.015 33.7317 63.11C33.7317 63.2146 33.6793 63.267 33.5746 63.267C33.4985 63.267 33.4608 63.2146 33.4608 63.11C33.4608 63.0339 33.5082 62.9487 33.6032 62.8531C33.7079 62.7485 33.8649 62.6961 34.0742 62.6961C34.255 62.6961 34.3877 62.7393 34.4735 62.8245C34.5399 62.8915 34.5733 62.9675 34.5733 63.0527V64.0941C34.5733 64.2274 34.6397 64.2937 34.7729 64.2937C34.8204 64.3223 34.8204 64.3509 34.7729 64.3796H34.3451V64.1659ZM37.9324 64.0941C37.9324 64.2274 37.9994 64.2937 38.1321 64.2937C38.1801 64.3223 38.1801 64.3509 38.1321 64.3796H37.5046C37.4571 64.3509 37.4571 64.3223 37.5046 64.2937C37.6379 64.2937 37.7042 64.2274 37.7042 64.0941V63.609C37.7042 63.5616 37.6804 63.5378 37.633 63.5378H36.9769C36.9295 63.5378 36.9058 63.5664 36.9058 63.6236V64.0941C36.9058 64.2274 36.9721 64.2937 37.1054 64.2937C37.1528 64.3223 37.1528 64.3509 37.1054 64.3796H36.4778C36.4304 64.3509 36.4304 64.3223 36.4778 64.2937C36.6106 64.2937 36.6775 64.2274 36.6775 64.0941V63.0248C36.6775 62.8915 36.6106 62.8245 36.4778 62.8245C36.4304 62.7965 36.4304 62.7679 36.4778 62.7393H37.1054C37.1528 62.7679 37.1528 62.7965 37.1054 62.8245C36.9721 62.8245 36.9058 62.8915 36.9058 63.0248V63.3668C36.9058 63.424 36.9344 63.4526 36.991 63.4526H37.633C37.6804 63.4526 37.7042 63.4289 37.7042 63.3807V63.0248C37.7042 62.8915 37.6379 62.8245 37.5046 62.8245C37.4571 62.7965 37.4571 62.7679 37.5046 62.7393H38.1321C38.1801 62.7679 38.1801 62.7965 38.1321 62.8245C37.9994 62.8245 37.9324 62.8915 37.9324 63.0248V64.0941ZM40.0939 64.0374V64.0941C40.0939 64.2274 40.1602 64.2937 40.2935 64.2937C40.3409 64.3223 40.3409 64.3509 40.2935 64.3796H39.666C39.6186 64.3509 39.6186 64.3223 39.666 64.2937C39.7988 64.2937 39.8656 64.2274 39.8656 64.0941V63.0248C39.8656 62.8915 39.7988 62.8245 39.666 62.8245C39.6186 62.7965 39.6186 62.7679 39.666 62.7393H40.2935C40.3409 62.7679 40.3409 62.7965 40.2935 62.8245C40.1602 62.8245 40.0939 62.8915 40.0939 63.0248V63.7661C40.0939 63.8616 40.1267 63.8756 40.1937 63.8092L40.8924 63.11V63.0248C40.8924 62.8915 40.8259 62.8245 40.6926 62.8245C40.6452 62.7965 40.6452 62.7679 40.6926 62.7393H41.3203C41.3683 62.7679 41.3683 62.7965 41.3203 62.8245C41.1876 62.8245 41.1205 62.8915 41.1205 63.0248V64.0941C41.1205 64.2274 41.1876 64.2937 41.3203 64.2937C41.3683 64.3223 41.3683 64.3509 41.3203 64.3796H40.6926C40.6452 64.3509 40.6452 64.3223 40.6926 64.2937C40.8259 64.2937 40.8924 64.2274 40.8924 64.0941V63.3807C40.8924 63.2859 40.8595 63.2718 40.7924 63.3381L40.0939 64.0374ZM44.0804 63.3807C44.0804 63.2859 44.0476 63.2718 43.9805 63.3381L43.2821 64.0374V64.0941C43.2821 64.2274 43.3484 64.2937 43.4817 64.2937C43.5291 64.3223 43.5291 64.3509 43.4817 64.3796H42.854C42.8066 64.3509 42.8066 64.3223 42.854 64.2937C42.9868 64.2937 43.0537 64.2274 43.0537 64.0941V63.0248C43.0537 62.8915 42.9868 62.8245 42.854 62.8245C42.8066 62.7965 42.8066 62.7679 42.854 62.7393H43.4817C43.5291 62.7679 43.5291 62.7965 43.4817 62.8245C43.3484 62.8245 43.2821 62.8915 43.2821 63.0248V63.7661C43.2821 63.8616 43.3148 63.8756 43.3818 63.8092L44.0804 63.11V63.0248C44.0804 62.8915 44.014 62.8245 43.8807 62.8245C43.8333 62.7965 43.8333 62.7679 43.8807 62.7393H44.5083C44.5563 62.7679 44.5563 62.7965 44.5083 62.8245C44.3756 62.8245 44.3086 62.8915 44.3086 63.0248V64.0941C44.3086 64.2274 44.3756 64.2937 44.5083 64.2937C44.5563 64.3223 44.5563 64.3509 44.5083 64.3796H43.8807C43.8333 64.3509 43.8333 64.3223 43.8807 64.2937C44.014 64.2937 44.0804 64.2274 44.0804 64.0941V63.3807ZM43.4103 62.34C43.4103 62.3589 43.4152 62.3729 43.4244 62.3827C43.4816 62.4398 43.5674 62.4679 43.6811 62.4679C43.7955 62.4679 43.8807 62.4398 43.938 62.3827C43.9477 62.3729 43.952 62.3589 43.952 62.34C43.952 62.3205 43.9331 62.292 43.8954 62.2542C43.8668 62.2257 43.8522 62.1879 43.8522 62.1398C43.8522 62.102 43.862 62.0735 43.8807 62.0546C43.9094 62.026 43.9429 62.0114 43.9805 62.0114C44.0189 62.0114 44.0518 62.026 44.0804 62.0546C44.109 62.0833 44.1236 62.1355 44.1236 62.2116C44.1236 62.2968 44.0901 62.3729 44.0238 62.4398C43.9568 62.5062 43.8431 62.5396 43.6811 62.5396C43.5192 62.5396 43.4056 62.5062 43.3392 62.4398C43.2723 62.3729 43.2387 62.2968 43.2387 62.2116C43.2387 62.1355 43.2533 62.0833 43.2821 62.0546C43.3106 62.026 43.3434 62.0114 43.3818 62.0114C43.4194 62.0114 43.453 62.026 43.4817 62.0546C43.5005 62.0735 43.5101 62.102 43.5101 62.1398C43.5101 62.1879 43.4955 62.2257 43.467 62.2542C43.4292 62.292 43.4103 62.3205 43.4103 62.34Z" fill="#1E1920"/>
</svg>
