<svg width="30" height="30" viewBox="0 0 30 30" fill="none" xmlns="http://www.w3.org/2000/svg">
<path d="M15 30C23.2843 30 30 23.2843 30 15C30 6.71573 23.2843 0 15 0C6.71573 0 0 6.71573 0 15C0 23.2843 6.71573 30 15 30Z" fill="url(#paint0_linear)"/>
<path fill-rule="evenodd" clip-rule="evenodd" d="M14.4334 21.5789H15.6107C15.6107 21.5789 15.9664 21.5398 16.1479 21.3441C16.315 21.1644 16.3097 20.827 16.3097 20.827C16.3097 20.827 16.2867 19.2472 17.0199 19.0146C17.7426 18.7855 18.6707 20.5414 19.6545 21.2166C20.3983 21.7275 20.9636 21.6155 20.9636 21.6155L23.5939 21.5789C23.5939 21.5789 24.9699 21.4941 24.3175 20.4123C24.264 20.3238 23.9375 19.612 22.3618 18.1493C20.7125 16.6185 20.9334 16.8661 22.9201 14.2182C24.13 12.6056 24.6137 11.621 24.4626 11.1994C24.3185 10.7977 23.4287 10.9039 23.4287 10.9039L20.467 10.9223C20.467 10.9223 20.2475 10.8924 20.0847 10.9897C19.9256 11.0852 19.8232 11.3077 19.8232 11.3077C19.8232 11.3077 19.3544 12.5556 18.7293 13.6168C17.4105 15.8562 16.8832 15.9744 16.6677 15.8354C16.1664 15.5113 16.2915 14.5334 16.2915 13.8388C16.2915 11.6686 16.6207 10.7638 15.6506 10.5296C15.3286 10.4517 15.0917 10.4004 14.2684 10.3921C13.2117 10.3812 12.3173 10.3953 11.8109 10.6435C11.4739 10.8084 11.214 11.1761 11.3723 11.1972C11.5681 11.2234 12.0114 11.3167 12.2464 11.6368C12.5499 12.0497 12.5392 12.977 12.5392 12.977C12.5392 12.977 12.7136 15.5316 12.132 15.849C11.7328 16.0667 11.1852 15.6223 10.0095 13.5906C9.40703 12.5499 8.9522 11.3996 8.9522 11.3996C8.9522 11.3996 8.8645 11.1847 8.70807 11.0697C8.51823 10.9304 8.25298 10.886 8.25298 10.886L5.43871 10.9044C5.43871 10.9044 5.01623 10.9162 4.86114 11.0999C4.72317 11.2633 4.85018 11.6013 4.85018 11.6013C4.85018 11.6013 7.05347 16.756 9.54821 19.3537C11.8357 21.7353 14.4334 21.5789 14.4334 21.5789Z" fill="white"/>
<defs>
<linearGradient id="paint0_linear" x1="15" y1="0" x2="15" y2="30" gradientUnits="userSpaceOnUse">
<stop stop-color="#54A5E2"/>
<stop offset="1" stop-color="#3382BE"/>
</linearGradient>
</defs>
</svg>
