<svg width="17" height="17" fill="none" xmlns="http://www.w3.org/2000/svg"><path d="M5.582 5.395l-.084.06L3.782 6.68c.191.478.413.944.666 1.393 0 0 0 0 0 0l.03.054a11.733 11.733 0 0 0 4.395 4.394s0 0 0 0l.054.031s0 0 0 0c.45.253.915.475 1.393.665l1.225-1.715.06-.084.094.044a12.54 12.54 0 0 0 3.43 1.026l.107.015v2.718l-.12.006c-.158.006-.318.01-.477.01-7.11 0-12.875-5.765-12.874-12.876l3.817 3.034zm0 0L5.538 5.3m.044.094L5.538 5.3m0 0a12.54 12.54 0 0 1-1.026-3.43l-.015-.107M5.538 5.3L4.497 1.764m0 0h-.108m.108 0h-.108m0 0H1.778m2.61 0h-2.61m0 0l-.005.12m.005-.12l-.005.12m0 0a13.19 13.19 0 0 0-.008.477l.008-.477zm4.167 5.27l-.092.065 10.282 3.608-.01.125s0 0 0 0a.82.82 0 0 1 .755.817v4.214a.82.82 0 0 1-.736.815h0a14.52 14.52 0 0 1-1.5.077C6.623 16.875.125 10.377.125 2.361c0-.504.025-1.004.077-1.5h0a.82.82 0 0 1 .815-.736h4.214a.82.82 0 0 1 .817.755c.12 1.535.565 3.027 1.303 4.378h0a.82.82 0 0 1-.242 1.06s0 0 0 0l-1.17.835z" fill="#fff" stroke="#00A86B" stroke-width=".25"/></svg>