<svg width="151" height="220" viewBox="0 0 151 220" fill="none" xmlns="http://www.w3.org/2000/svg">
<path d="M142.599 119.693C137.846 110.504 131.148 102.282 123.104 95.7304C130.928 85.396 135.2 72.7404 135.2 59.7024C135.2 26.7824 108.417 0 75.4974 0C42.5775 0 15.7951 26.7824 15.7951 59.7024C15.7951 72.7404 20.0668 85.396 27.8909 95.7304C19.8463 102.282 13.148 110.504 8.39557 119.693C2.90306 130.313 0 142.288 0 154.322C0 167.742 3.56821 180.923 10.318 192.44C16.867 203.612 26.2371 212.977 37.4159 219.519C37.9537 219.834 38.566 220 39.1895 220H111.806C112.43 220 113.042 219.834 113.58 219.519C124.758 212.976 134.129 203.612 140.678 192.44C147.428 180.923 150.996 167.742 150.996 154.322C150.995 142.287 148.092 130.313 142.599 119.693Z" fill="url(#paint0_linear)"/>
<path opacity="0.5" d="M142.599 119.693C137.846 110.504 131.148 102.282 123.104 95.7304C130.928 85.396 135.2 72.7404 135.2 59.7024C135.2 26.7824 108.417 0 75.4974 0C42.5775 0 15.7951 26.7824 15.7951 59.7024C15.7951 72.7404 20.0668 85.396 27.8909 95.7304C19.8463 102.282 13.148 110.504 8.39557 119.693C2.90306 130.313 0 142.288 0 154.322C0 167.742 3.56821 180.923 10.318 192.44C16.867 203.612 26.2371 212.977 37.4159 219.519C37.9537 219.834 38.566 220 39.1895 220H111.806C112.43 220 113.042 219.834 113.58 219.519C124.758 212.976 134.129 203.612 140.678 192.44C147.428 180.923 150.996 167.742 150.996 154.322C150.995 142.287 148.092 130.313 142.599 119.693ZM110.841 212.979H40.1537C19.6923 200.619 7.02128 178.232 7.02128 154.322C7.02128 132.642 17.4624 112.013 34.9514 99.14C35.7383 98.5609 36.2485 97.6795 36.3585 96.7092C36.4685 95.7384 36.1694 94.7652 35.5323 94.0243C27.332 84.4851 22.8159 72.2962 22.8159 59.7024C22.8163 30.654 46.449 7.02128 75.4974 7.02128C104.546 7.02128 128.179 30.654 128.179 59.7024C128.179 72.2957 123.662 84.4847 115.462 94.0243C114.825 94.7652 114.526 95.7384 114.636 96.7092C114.746 97.68 115.256 98.5609 116.043 99.14C133.532 112.013 143.973 132.642 143.973 154.322C143.974 178.232 131.303 200.619 110.841 212.979Z" fill="#FFD700"/>
<path opacity="0.5" d="M123.104 95.7303C131.148 102.282 137.846 110.504 142.599 119.693C148.092 130.312 150.995 142.287 150.996 154.322C150.996 167.742 147.428 180.923 140.678 192.44C134.129 203.612 124.758 212.976 113.58 219.519C113.042 219.834 112.43 220 111.806 220H39.1896C38.5661 220 37.9538 219.834 37.416 219.519L40.1538 212.979H110.841C131.303 200.619 143.974 178.232 143.973 154.322C143.973 132.642 133.532 112.013 116.043 99.1399C115.256 98.5609 114.746 97.6799 114.636 96.7091C114.526 95.7383 114.825 94.7652 115.462 94.0242C123.663 84.4846 128.179 72.2957 128.179 59.7023C128.179 52.9302 126.894 46.4525 124.556 40.4999L128.179 31.6296C132.658 40.0024 135.2 49.5611 135.2 59.7023C135.2 72.7403 130.928 85.396 123.104 95.7303Z" fill="#EDC800"/>
<defs>
<linearGradient id="paint0_linear" x1="22" y1="52" x2="139.5" y2="200" gradientUnits="userSpaceOnUse">
<stop stop-color="white"/>
<stop offset="1" stop-color="#FFF7CF"/>
</linearGradient>
</defs>
</svg>
