<svg width="21" height="32" viewBox="0 0 21 32" fill="none" xmlns="http://www.w3.org/2000/svg">
<path d="M17.127 11.2837L16.9855 11.5787L17.1991 11.8265C19.2918 14.2543 20.5001 17.6876 20.5 21.3333C20.5 25.3284 19.0772 29.0117 16.6342 31.4541C16.6033 31.4849 16.5641 31.5 16.5268 31.5H4.47325C4.43603 31.5 4.39674 31.4849 4.3657 31.454L4.01314 31.8085L4.36659 31.4549C1.92308 29.0126 0.5 25.3288 0.5 21.3333C0.5 17.6876 1.70816 14.2543 3.80096 11.8265L4.01457 11.5787L3.87303 11.2837C3.38235 10.2611 3.12502 9.13446 3.12502 8C3.12502 3.85725 6.44105 0.5 10.5 0.5C14.559 0.5 17.875 3.85725 17.875 8C17.875 9.13445 17.6177 10.2611 17.127 11.2837Z" stroke="#A98B5F"/>
</svg>
