<svg width="1440" height="459" viewBox="0 0 1440 459" fill="none" xmlns="http://www.w3.org/2000/svg">
<path d="M5.00624 311.823C16.6552 322.546 35.3323 324.575 47.6552 313.755C56.8012 305.738 59.8819 293.083 56.9937 281.491C53.1427 266.229 37.3539 258.211 27.7266 247.102C18.5807 236.476 12.5155 223.821 7.79812 210.684C10.205 213.678 13.1895 216.286 16.8478 218.605C35.3323 230.197 61.2296 221.986 75.2855 207.11C82.8911 199.092 87.3196 188.562 86.9346 177.357C86.357 162.191 77.5961 148.087 63.1552 142.678C61.0371 141.905 58.7266 141.422 56.5122 141.325C54.5868 141.229 52.7576 141.325 50.8322 141.615C50.5434 141.712 50.2545 141.808 50.062 141.905C52.1801 142.678 54.1055 143.74 55.8384 145.093C64.4068 151.661 68.2576 164.413 68.1613 175.135C68.0651 189.142 55.357 199.382 42.5526 202.28C36.3913 203.632 29.6521 202.569 25.2235 197.836C19.2547 191.46 19.5435 181.317 21.0839 173.3C22.9131 163.833 26.8601 154.849 31.0962 146.348C35.3322 137.848 40.0496 129.443 45.5371 121.716C66.1396 93.0254 93.4812 68.9721 123.711 50.7148C137.478 45.9814 151.726 42.697 166.264 41.0549C182.63 39.2195 204.773 39.1228 216.615 52.7434C213.534 55.738 210.742 59.0224 208.142 62.5C201.596 71.5803 197.552 81.9165 195.627 92.8322C185.615 83.2688 175.506 73.8987 165.878 64.0455C164.627 62.7897 162.701 63.1761 162.028 64.8183C155.192 82.2062 145.469 98.6282 143.447 117.562C142.966 122.198 142.965 126.932 143.254 131.665C140.847 131.086 138.344 130.603 135.938 130.12C127.562 128.574 119.09 127.511 110.522 126.932C103.012 126.449 95.3103 126.642 87.8011 125.773C86.6458 125.676 85.0092 126.256 84.9129 127.705C83.7576 141.615 88.0899 155.622 94.829 167.793C101.279 179.482 109.944 190.591 121.304 197.739C108.018 199.961 95.888 206.916 85.3942 215.321C74.6116 224.014 65.2732 235.317 61.0371 248.551C60.5558 249.903 61.8074 251.062 62.9627 251.449C70.1831 253.477 77.211 256.665 84.4315 259.08C92.5184 261.785 100.798 264.103 109.077 265.842C111.484 266.325 113.987 266.808 116.49 267.194C114.372 271.445 112.64 275.792 111.292 280.332C105.9 298.686 108.789 317.523 108.5 336.263C108.5 338.002 110.136 339.161 111.677 338.485C124.289 332.979 137.285 328.245 150.09 323.222C147.779 333.945 147.587 345.15 150.186 356.066C156.925 384.08 179.453 406.105 207.083 411.418C207.276 421.367 207.95 431.317 208.913 441.17C209.201 443.489 209.394 445.904 209.683 448.222C210.645 447.449 211.705 446.677 212.667 445.807C214.978 443.972 217.385 442.136 219.984 440.494C225.953 436.534 232.307 432.863 238.661 429.675C248.866 424.652 259.745 421.174 270.816 418.469C301.527 411.128 335.319 407.844 359.869 385.626C373.251 373.454 382.782 357.032 389.617 340.417C396.067 324.864 401.844 306.897 399.822 289.799C402.325 286.901 404.154 283.423 405.021 279.559C405.31 278.4 405.502 277.241 405.598 275.985C406.85 276.661 408.102 277.241 409.353 277.82C417.536 281.684 426.394 285.162 435.058 288.35C444.397 291.827 453.735 295.015 463.266 298.01C433.903 299.652 405.791 321.29 392.987 346.793C385.477 361.669 382.878 379.636 387.403 395.865C391.446 410.162 402.518 421.367 415.515 427.743C426.779 433.346 439.583 435.085 451.521 432.187C453.831 431.607 456.142 430.834 458.452 429.965C456.816 429.868 455.179 429.675 453.542 429.385C447.285 428.419 441.508 426.487 435.924 422.913C428.704 418.276 423.216 411.321 419.269 403.786C411.182 388.717 410.22 369.3 415.226 353.168C420.232 336.939 432.074 323.609 446.322 314.915C454.794 309.795 463.94 306.414 473.856 306.028C479.825 305.738 485.794 306.317 491.667 306.124C499.754 308.153 507.937 309.795 516.216 311.051C542.21 315.108 570.803 316.75 596.989 314.432C599.493 314.239 601.996 313.949 604.499 313.659C604.017 314.045 603.44 314.335 602.958 314.722C587.266 326.217 574.269 342.156 567.241 360.413C560.502 377.898 558.769 397.218 560.021 415.861C560.791 427.453 562.909 439.045 566.856 450.058C567.049 450.541 567.145 450.927 567.337 451.41C568.011 451.217 568.781 451.024 569.455 450.927C585.148 446.966 601.225 443.489 614.704 434.215C629.915 423.686 642.142 407.94 649.169 390.842C656.101 373.841 658.508 355.39 658.604 337.133C658.701 327.28 657.93 317.523 658.123 307.67C658.123 307.477 658.123 307.283 658.123 307.187C658.219 305.062 658.315 302.936 658.508 300.811C670.831 296.368 682.865 290.958 694.514 284.776C693.359 286.128 692.204 287.48 691.048 288.929C681.999 300.232 674.682 313.273 670.253 327.569C661.107 357.129 664.188 389.683 679.303 418.759C687.871 435.181 700.964 448.609 718.39 454.211C733.793 459.138 750.545 456.433 758.728 442.136C766.815 428.033 767.2 403.4 748.716 394.899C741.014 391.325 731.579 391.615 724.359 394.899C720.893 396.445 717.235 398.473 715.117 401.758C714.346 402.82 713.865 403.98 713.576 405.042C712.998 406.878 712.902 408.906 712.71 411.128C713.672 410.645 714.731 410.162 715.79 409.679C724.936 405.912 736.874 404.173 743.036 415.378C750.738 429.482 736.2 438.755 723.974 436.534C706.163 433.346 693.84 412.963 688.16 396.541C682.384 379.636 681.613 361.572 684.213 344.667C688.449 316.75 700.676 289.702 719.449 269.803C724.744 266.325 729.846 262.654 734.852 258.887C773.554 229.617 808.501 193.199 853.942 174.266C877.722 164.413 904.004 160.645 929.517 163.157C954.259 165.668 977.557 175.232 998.93 187.596C1021.17 200.444 1041.48 216.576 1061.41 232.709C1061.89 233.095 1062.47 233.578 1062.95 233.964C1062.66 233.771 1062.37 233.675 1062.08 233.481C1047.64 226.14 1031.85 221.117 1016.26 216.866C984.2 208.172 949.734 206.916 920.66 225.464C892.259 243.528 877.818 277.434 881.958 310.568C883.883 325.927 890.43 340.997 901.501 351.816C911.995 362.055 926.051 368.045 940.492 370.363C953.489 372.392 967.737 370.846 979.194 364.084C991.42 356.839 998.256 344.281 1000.28 330.371C1002.59 314.239 997.1 297.334 985.066 286.225C984.97 286.128 984.874 286.031 984.777 285.935C985.74 283.134 985.836 280.236 986.607 277.434C987.473 274.343 989.206 271.348 990.939 268.644C994.116 263.814 998.256 259.853 1002.88 256.472C1012.41 249.71 1023.86 246.329 1035.42 245.266C1048.7 244.011 1061.99 246.232 1074.79 249.517C1070.56 250.29 1066.32 251.545 1062.47 253.188C1028.97 267.388 1010.1 302.357 1004.22 336.939C1001.24 354.327 998.93 375.29 1001.14 394.996C1003.55 415.378 1010.87 434.215 1027.81 446.29C1036.09 452.183 1048.41 457.592 1058.62 458.655C1090 461.939 1131.11 441.557 1131.4 406.684C1131.59 387.268 1118.6 368.431 1099.63 362.828C1089.81 359.93 1080.28 361.766 1071.33 366.306C1064.11 369.88 1056.89 376.642 1059.1 384.949C1059.29 385.529 1059.49 386.205 1059.77 386.785C1059.77 386.881 1059.87 386.978 1059.87 386.978C1060.54 385.819 1061.31 384.853 1062.08 383.983C1069.31 376.449 1082.59 377.318 1091.74 381.375C1097.61 383.887 1102.81 388.041 1106.18 393.547C1109.74 399.439 1109.55 406.974 1107.62 413.446C1103.67 426.874 1089.91 434.408 1076.91 436.34C1062.57 438.466 1048.03 433.829 1038.31 423.01C1028.77 412.48 1025.02 397.701 1023.67 383.79C1022.32 369.011 1023.58 353.844 1027.23 339.548C1031.85 321.484 1040.62 304.579 1051.69 289.702C1056.21 283.617 1061.22 277.821 1066.71 272.508C1059.39 282.94 1055.73 296.271 1055.83 308.829C1055.92 324.188 1064.49 340.417 1076.53 349.691C1088.75 359.157 1106.27 359.834 1118.79 350.367C1127.36 343.895 1129.67 333.172 1124.95 323.609C1120.91 315.591 1111.38 312.403 1103.58 309.698C1095.59 306.897 1086.73 304.289 1084.32 295.208C1080.95 282.844 1090.1 266.808 1100.4 260.239C1100.79 260.529 1101.17 260.722 1101.46 261.012C1101.75 261.205 1102.04 261.302 1102.33 261.399C1110.99 266.518 1119.85 271.155 1129.09 275.309C1153.74 286.321 1180.4 292.987 1207.26 294.532C1207.36 294.629 1207.55 294.629 1207.65 294.629C1225.65 298.106 1242.98 306.221 1255.11 320.421C1266.18 333.462 1266.86 351.043 1270.23 366.982C1271.67 373.841 1275.14 381.375 1282.36 383.694C1290.54 386.399 1297.57 380.603 1300.94 373.454C1308.45 357.708 1296.99 338.099 1286.88 325.831C1290.16 328.535 1293.33 331.337 1296.41 334.235C1308.16 345.633 1317.88 359.447 1322.79 375.193C1327.61 390.456 1329.05 412.094 1316.25 423.879C1307.48 431.897 1290.25 432.573 1288.52 417.987C1288.13 414.895 1288.62 412.287 1289.77 410.162C1292.75 403.98 1300.55 400.888 1307.58 399.439C1308.74 399.246 1309.8 399.053 1310.95 398.86C1309.6 397.218 1308.35 395.865 1306.81 394.706C1305.94 394.03 1304.89 393.45 1303.63 393.064C1299.98 391.711 1295.84 392.098 1292.08 392.774C1284.28 394.126 1276.39 398.86 1272.06 405.622C1261.76 421.657 1276.2 439.915 1290.83 446.29C1305.66 452.666 1320.96 445.904 1330.78 434.119C1341.85 420.788 1344.94 403.883 1342.62 387.171C1341.76 380.892 1340.31 374.807 1338.39 368.817C1341.95 375.096 1345.22 381.569 1348.5 388.041C1356.58 404.366 1363.52 422.623 1375.45 436.534C1383.64 444.938 1394.61 455.757 1406.55 457.206C1419.93 458.752 1420.89 445.228 1419.26 435.085C1418.97 433.539 1418.68 432.09 1418.39 430.738C1415.79 420.305 1410.69 410.259 1405.3 400.985C1398.66 389.683 1390.57 379.154 1381.52 369.687C1363.52 351.043 1340.22 337.326 1316.05 328.342C1315.76 328.246 1315.57 328.246 1315.28 328.246C1310.28 322.933 1304.79 318.103 1298.72 313.852C1292.08 309.215 1284.96 305.255 1277.54 302.067C1288.13 303.709 1298.82 304.868 1309.6 304.579C1319.71 304.289 1329.82 302.55 1339.45 299.845C1347.92 297.43 1356.97 294.146 1364.09 288.833C1373.91 281.395 1387.49 263.91 1373.53 253.574C1362.84 245.653 1345.71 252.994 1335.21 257.631C1334.63 257.921 1334.06 258.114 1333.48 258.404C1347.63 248.937 1360.92 238.215 1373.53 227.009C1385.27 216.576 1396.25 205.371 1406.74 193.586C1400.97 204.791 1396.25 216.576 1392.78 228.555C1383.93 259.08 1385.37 292.214 1389.7 323.416C1395.09 362.055 1409.82 417.697 1443.71 442.909L1443.71 436.051C1439.38 432.38 1435.43 428.13 1431.77 423.686C1412.13 399.15 1402.8 366.596 1397.12 336.167C1391.43 305.834 1388.84 272.991 1394.71 242.465C1401.45 207.689 1419.45 175.328 1443.71 149.633L1443.71 148.281L1443.71 144.417L1443.71 144.223L1443.71 143.74L1443.71 141.422C1443.23 142.002 1442.75 142.581 1442.27 143.161C1440.82 144.9 1439.38 146.542 1437.93 148.184C1436.11 150.599 1434.28 153.014 1432.45 155.429C1427.92 160.645 1423.69 166.055 1419.74 171.851C1419.35 172.334 1418.97 172.72 1418.68 173.203C1410.3 183.25 1401.45 192.91 1392.21 202.183C1373.05 221.503 1352.44 239.181 1329.72 254.154C1309.12 267.678 1286.79 278.304 1262.81 284.003C1262.14 284.196 1261.47 284.293 1260.89 284.486C1233.93 290.572 1205.82 290.475 1178.86 284.969C1152.58 279.559 1127.65 268.837 1104.64 255.023C1103.58 254.347 1102.52 253.767 1101.46 253.091C1079.8 239.664 1060.83 222.662 1040.52 207.303C1001.14 177.357 956.666 153.207 905.93 155.622C880.995 156.781 857.216 164.123 835.265 175.715C813.893 187.017 794.638 202.086 775.961 217.253C756.899 232.708 738.415 248.937 718.39 262.944C717.235 263.717 716.079 264.49 714.924 265.359C694.803 278.98 672.66 289.316 649.651 296.947C645.222 298.396 640.794 299.652 636.269 300.811C633.958 301.294 631.744 301.777 629.53 302.357C599.878 308.829 568.493 309.312 538.552 307.283C531.909 306.8 525.266 306.028 518.719 304.965C513.232 304.096 507.744 303.033 502.353 301.874C494.362 300.135 486.564 298.106 478.67 295.788C465.577 292.021 452.676 287.577 439.872 282.94C433.903 280.718 427.934 278.497 421.965 276.178C416.477 274.053 411.471 270.576 405.887 268.74C404.539 262.461 400.785 256.955 395.297 253.477C401.17 252.415 406.272 249.227 409.931 244.687C410.99 245.266 412.145 245.749 413.3 246.329C415.996 247.585 418.499 249.13 421.291 250.193C427.164 252.511 433.036 254.83 439.005 257.052C452.098 261.978 465.288 266.615 478.766 270.672C492.341 274.729 506.011 278.207 519.971 280.525C544.906 284.679 572.729 286.225 597.952 284.003C604.114 283.423 610.275 282.65 616.437 281.588C642.238 277.241 667.269 268.547 690.663 256.665C706.548 248.551 721.759 238.987 735.912 228.265C743.902 222.179 751.7 215.9 759.498 209.428C789.439 184.698 818.995 158.617 855.001 143.644C860.296 141.422 865.784 139.49 871.272 137.944C890.43 132.438 910.743 130.603 930.576 132.631C955.318 135.143 978.616 144.706 999.989 157.071C1005.57 160.355 1011.06 163.736 1016.45 167.311C1017.61 168.373 1018.76 169.339 1020.01 170.402C1026.46 175.811 1033.59 181.028 1041.1 185.182C1048.32 190.784 1055.44 196.484 1062.47 202.183C1068.82 207.399 1075.37 212.326 1082.11 217.059C1097.22 227.782 1113.11 237.152 1130.15 244.783C1177.71 266.035 1232.39 271.059 1282.07 254.154C1291.41 250.966 1300.36 247.102 1309.12 242.562C1332.71 230.487 1354.27 214.065 1373.82 196.58C1387.78 184.119 1400.77 170.595 1412.9 156.491C1422.05 145.866 1430.23 134.467 1438.13 122.971C1438.13 122.971 1438.13 122.875 1438.22 122.875C1440.15 120.46 1442.07 118.045 1444 115.63L1444 114.084L1444 111.283C1441.4 114.76 1438.9 118.238 1436.49 121.716C1436.49 121.716 1436.49 121.716 1436.39 121.812C1430.81 129.057 1424.84 135.916 1418.87 142.968C1413.96 148.86 1408.86 154.559 1403.66 160.259C1400 164.219 1396.25 168.083 1392.4 171.947C1377.38 187.114 1361.4 201.314 1344.16 213.968C1339.54 217.446 1334.73 220.73 1329.92 223.918C1327.7 225.367 1325.39 226.816 1323.08 228.265C1322.31 227.299 1321.44 226.236 1320.67 225.27C1320.58 225.174 1320.48 224.981 1320.39 224.884C1316.15 219.185 1312.3 213.195 1308.25 207.303C1306.71 205.081 1305.17 202.859 1303.63 200.637C1299.01 194.262 1294.01 188.08 1288.52 182.284C1289.39 182.38 1290.25 182.477 1291.21 182.477C1301.52 182.477 1310.66 175.908 1314.03 166.055C1316.15 159.969 1315.67 153.4 1312.88 147.604C1311.43 144.706 1309.51 142.098 1307.1 140.07C1313.26 139.78 1318.85 137.172 1322.98 132.921C1325.49 130.41 1327.41 127.222 1328.66 123.744C1332.42 112.828 1327.8 100.947 1318.36 95.2473C1320 95.6337 1321.64 95.8269 1323.37 95.8269C1326.93 95.8269 1330.3 95.0541 1333.38 93.6051C1333.19 93.9915 1333.09 94.4745 1332.9 94.8609C1328.57 107.515 1335.31 121.329 1347.92 125.58C1348.59 125.773 1349.17 125.966 1349.84 126.159C1351.77 126.642 1353.7 126.932 1355.72 126.932C1366.02 126.932 1375.26 120.363 1378.53 110.51C1380.65 104.424 1380.17 97.8555 1377.38 92.0595C1376.8 90.9003 1376.13 89.7411 1375.36 88.6786C1377.86 89.5479 1380.46 89.9343 1383.16 89.9343C1386.33 89.9343 1389.41 89.3547 1392.21 88.1956C1390.95 90.0309 1389.89 92.0595 1389.22 94.1847C1385.27 105.873 1390.66 118.528 1401.45 123.744C1402.31 124.131 1403.28 124.517 1404.24 124.903C1406.74 125.773 1409.34 126.256 1412.04 126.256C1422.34 126.256 1431.58 119.687 1434.85 109.834C1439.19 97.1793 1432.45 83.4622 1419.84 79.1152C1417.33 78.2458 1414.64 77.7628 1412.04 77.7628C1408.86 77.7628 1405.88 78.3424 1402.99 79.5016C1404.24 77.6662 1405.3 75.7342 1406.07 73.5124C1410.02 60.4715 1403.28 46.6577 1390.66 42.3107C1388.16 41.4413 1385.47 40.9583 1382.87 40.9583C1380.65 40.9583 1378.53 41.2481 1376.51 41.8277C1374.49 42.4073 1372.47 43.2767 1370.74 44.3393C1371.89 42.6005 1372.76 40.7651 1373.43 38.8332C1377.76 26.1786 1371.03 12.4614 1358.41 8.11446C1355.91 7.24508 1353.31 6.76208 1350.62 6.76208C1345.42 6.76208 1340.6 8.40426 1336.56 11.3022C1332.52 14.2002 1329.44 18.2574 1327.8 23.184C1327.32 24.4398 1327.03 25.7922 1326.84 27.048C1325.3 36.3216 1329.34 45.5951 1336.85 50.8115C1338.68 52.0673 1340.7 53.1299 1342.91 53.9027C1345.42 54.7721 1348.11 55.1585 1350.71 55.1585C1355.14 55.1585 1359.28 53.9027 1362.94 51.7775C1361.78 53.5163 1360.92 55.3517 1360.24 57.2837C1357.64 64.915 1359.09 73.0294 1363.42 79.1152C1360.92 78.2458 1358.32 77.7628 1355.62 77.7628C1352.06 77.7628 1348.69 78.5356 1345.61 79.9846C1345.8 79.5982 1345.9 79.2118 1346.09 78.7288C1348.21 72.643 1347.73 66.0742 1344.94 60.2783C1343.11 56.4143 1340.31 53.2265 1336.85 50.9081C1335.12 49.7489 1333.19 48.7829 1331.07 48.0101C1328.57 47.1407 1325.97 46.6577 1323.27 46.6577C1318.94 46.6577 1314.9 47.8169 1311.34 49.8455C1307.77 51.8741 1304.79 54.8687 1302.57 58.4429C1302.48 58.2497 1302.38 57.9599 1302.29 57.7667C1299.49 52.0673 1294.58 47.7203 1288.62 45.5951C1288.52 45.5951 1288.52 45.5951 1288.42 45.4985C1285.92 44.6291 1283.32 44.2427 1280.62 44.2427C1275.43 44.2427 1270.61 45.8849 1266.57 48.7829C1262.62 51.6809 1259.44 55.7381 1257.81 60.6647C1255.69 66.7504 1256.17 73.3192 1258.96 79.1152C1260.89 83.0758 1263.78 86.3602 1267.44 88.6785C1265.41 88.0989 1263.39 87.9057 1261.27 87.9057C1256.07 87.9057 1251.26 89.5479 1247.22 92.4459C1243.27 95.3439 1240.09 99.4011 1238.46 104.328C1234.12 116.982 1240.86 130.699 1253.48 135.046C1255.98 135.916 1258.58 136.399 1261.27 136.399C1270.52 136.399 1278.89 131.086 1282.94 122.875C1284.28 127.029 1286.69 130.699 1289.96 133.597C1280.14 134.08 1271.57 140.553 1268.4 149.923C1266.76 154.656 1266.76 159.486 1267.92 164.026C1266.86 163.35 1265.89 162.674 1264.84 161.998C1249.24 152.144 1230.18 146.542 1211.69 146.831C1195.71 147.121 1180.98 153.304 1166.35 159.196C1165.96 159.389 1165.58 159.486 1165.19 159.679C1164.52 159.969 1163.85 160.162 1163.17 160.452C1163.27 160.935 1163.46 161.418 1163.56 161.804C1166.73 173.01 1171.74 183.733 1177.9 193.586C1187.72 209.428 1200.33 224.111 1215.93 234.447C1231.53 244.687 1250.3 250.096 1268.88 250.676C1265.7 251.062 1262.53 251.256 1259.54 251.449C1251.07 252.028 1242.4 251.642 1233.93 250.676C1217.08 248.647 1201.87 241.982 1188.2 231.936C1171.74 219.861 1158.45 203.052 1150.56 184.216C1143.24 166.441 1140.26 143.161 1155.18 128.284C1158.26 125.193 1162.21 122.875 1166.54 121.426C1171.45 119.687 1176.84 119.011 1181.75 119.204C1184.06 119.301 1186.28 119.784 1188.3 120.46C1189.36 120.846 1190.32 121.233 1191.28 121.716C1191.19 120.846 1191.09 119.977 1190.99 119.107C1189.26 103.072 1183.2 86.9397 1171.07 76.024C1159.03 65.1082 1141.99 63.949 1127.07 68.779C1111.38 73.8988 1098.48 85.4907 1091.93 100.56C1084.23 118.335 1084.52 138.427 1088.85 156.974C1097.13 192.233 1122.64 221.889 1152.87 240.63C1158.17 243.914 1163.75 246.909 1169.43 249.517C1144.49 242.562 1122.45 227.492 1104.64 208.076C1093.66 196.097 1084.23 183.153 1077.58 168.277C1073.44 159.003 1070.46 148.57 1070.75 138.524C1071.04 131.086 1073.06 123.841 1077.87 117.369C1078.16 117.079 1078.07 116.403 1077.68 116.209C1066.13 106.26 1049.47 116.403 1043.02 127.705C1036.38 139.49 1038.31 153.787 1042.73 165.958C1044.27 170.209 1046.2 174.266 1048.32 178.226C1036.96 166.538 1028.68 150.985 1024.06 136.012C1020.98 125.966 1019.34 115.147 1019.72 104.617C1019.82 99.8841 1020.49 95.1507 1021.75 90.5139C1021.94 89.9343 1022.13 89.3547 1022.32 88.7751C1028.1 89.8377 1033.49 85.4907 1033.68 79.5982C1033.78 76.6036 1032.05 73.609 1029.54 71.4838C1033.01 71.9668 1036.28 70.5178 1038.4 67.9096C1039.17 71.5804 1041.39 74.8648 1044.66 75.8308C1047.55 76.7002 1050.34 76.1206 1052.55 74.7682C1053.71 78.8254 1055.83 82.4962 1060.06 84.0417C1064.49 85.6839 1069.31 83.5587 1073.06 81.1438C1084.42 73.9954 1089.23 59.5054 1086.73 46.6577C1084.13 33.3269 1073.83 20.6724 1061.7 14.7798C1050.15 9.17703 1036.76 8.98382 1024.54 12.2682C1011.73 15.7458 999.892 23.184 991.035 33.0371C980.638 44.7257 976.305 59.3122 975.054 74.7682C972.84 102.106 983.333 128.284 999.989 149.44C972.743 134.274 943.284 124.324 911.321 124.71C900.827 121.426 890.334 118.335 880.225 113.988C868.094 108.675 857.793 100.947 849.129 90.9969C840.464 81.1437 833.725 69.5518 829.393 57.187C824.579 43.8563 823.809 30.1391 824.387 16.1322C824.483 14.3934 822.076 13.9104 821.21 15.2628C806.769 37.9637 796.756 65.5912 802.244 92.7357C805.132 107.322 814.085 120.073 825.831 128.478C819.669 125 813.7 121.136 807.346 118.045C802.533 115.726 796.371 113.215 791.076 115.63C785.685 118.045 783.182 124.71 782.7 130.216C780.486 151.951 808.116 153.883 829.393 148.28C811.775 158.327 795.505 170.788 779.716 183.539C780.005 183.153 780.293 182.766 780.582 182.284C778.753 183.539 776.828 184.698 774.902 185.858C748.908 201.41 718.197 209.235 688.064 206.82C669.483 205.371 651.576 199.865 635.306 190.784C628.856 187.21 622.598 182.766 617.784 177.067C635.499 158.617 634.055 123.068 610.564 109.93C598.048 102.879 582.356 107.419 571.958 116.113C559.924 126.063 554.052 141.422 552.222 156.588C548.949 184.698 563.198 212.809 585.533 229.521C605.558 244.59 631.166 248.937 655.62 247.488C679.014 246.136 702.216 239.084 723.3 228.748C721.759 229.907 720.219 230.97 718.679 232.129C698.461 246.329 676.03 257.148 652.732 265.166C652.058 265.166 651.287 265.263 650.614 265.263C636.076 265.649 621.443 263.814 607.194 261.109C574.943 255.023 544.906 233.868 530.08 204.308C516.12 176.391 516.024 140.359 530.08 112.442C536.723 99.1112 547.216 88.2921 560.887 82.2063C575.906 75.5409 594.39 76.1205 608.927 83.5587C612.008 85.1043 614.8 86.9397 617.399 89.1615C619.325 90.8037 621.058 92.6391 622.502 94.6677C622.02 92.7357 621.443 90.9003 620.961 88.9683C617.881 77.3763 614.607 65.9776 606.713 56.5108C594.968 42.6005 576.387 35.4521 558.769 33.6167C524.881 30.1391 492.726 46.8508 473.856 74.6715C440.931 123.068 449.884 198.029 493.496 236.959C508.322 250.193 526.614 260.336 544.809 268.354C553.185 272.025 561.753 275.212 570.514 277.627C543.462 274.343 517.564 265.842 494.459 251.159C469.909 235.51 447.959 211.263 445.648 180.931C445.456 178.806 445.456 176.681 445.552 174.652C445.648 172.334 445.841 170.015 446.13 167.794C444.589 168.566 443.241 169.532 441.893 170.595C434.962 176.294 430.726 185.278 428.993 194.262C425.431 212.712 432.94 229.327 444.782 243.238C449.306 248.551 454.409 253.284 459.897 257.535C454.313 255.603 448.825 253.574 443.338 251.545C437.369 249.324 431.4 247.005 425.527 244.687C421.484 243.045 417.633 240.726 413.685 238.891C414.167 237.732 414.552 236.476 414.937 235.22C416.092 230.293 415.707 225.27 413.878 220.73C423.12 205.371 424.661 185.858 424.661 168.277C424.564 150.212 422.061 131.472 414.263 115.05C400.015 85.2009 369.977 69.262 344.369 50.7148C335.127 44.0494 326.366 36.7078 318.856 28.1105C314.139 22.7009 309.614 17.0015 305.667 11.0124C303.934 8.50079 302.394 5.8926 300.95 3.381C300.276 2.31841 299.698 1.15923 299.024 2.19733e-05C297.869 2.02862 296.714 4.1538 295.655 6.27901C291.034 15.0696 286.605 23.9567 282.658 33.0371C268.121 30.1391 253.102 31.9745 239.72 37.7704C233.847 29.1731 223.931 22.8941 214.593 19.0301C202.559 14.1035 189.851 11.9784 176.854 11.592C164.146 11.2056 151.438 12.7512 139.018 15.4559C123.711 18.7403 108.692 24.1499 94.3477 31.1051C92.711 24.2465 84.1427 19.2233 77.9812 17.0015C66.4285 12.9443 52.7576 13.9103 40.7235 14.8763C34.8509 15.3593 29.0745 16.0355 23.2981 16.8083C18.9659 17.3879 14.6336 18.5471 10.205 19.0301C6.93168 19.4165 3.56205 19.4165 0.192543 19.2233L0.192543 24.9227C0.577675 24.9227 0.866493 25.0193 1.2515 25.0193C12.1304 25.9853 22.7204 24.3431 33.503 23.0873C45.4408 21.7349 57.6675 20.8655 69.6054 22.6043C74.5153 23.2805 79.5216 24.4397 83.7576 27.0479C86.4533 28.6901 87.8011 31.1051 89.0526 33.6166C81.4471 37.4807 74.1303 41.8276 67.0061 46.561C63.444 43.663 55.0682 43.9528 51.6986 43.9528C43.5154 43.9528 35.4286 45.6916 27.3416 46.6576C19.2547 47.6236 11.3603 47.527 3.36967 46.078C2.31058 45.8848 1.2515 45.6916 0.288855 45.4018L0.288854 48.6862C6.06522 50.908 12.1304 52.2604 18.5807 52.2604C26.2825 52.2604 33.8881 51.0046 41.4937 50.3284C47.6552 49.8454 54.6831 49.2658 60.9408 50.6182C56.1272 53.9992 51.506 57.5734 46.9812 61.2441C44.767 62.4034 42.4565 63.3693 39.8571 64.0455C35.0435 65.3013 29.941 65.7843 24.9348 66.1707C16.9441 66.7503 8.37577 67.3299 0.288853 66.4605L0.288852 70.9041C8.76078 72.2565 17.4254 71.6769 25.8975 71.0007C29.7484 70.7109 33.5993 70.3245 37.3539 69.5517C36.8726 69.9381 36.4876 70.3245 36.0063 70.8075C27.3416 78.8253 19.3509 87.326 11.7453 96.3098C7.79813 101.043 3.94717 105.873 0.192535 110.896L0.192535 115.243C5.48758 108.771 11.0714 102.492 16.7516 96.3098C27.1491 85.0076 38.5093 74.4783 50.6397 65.0115C56.3197 60.4713 62.2887 56.2209 68.3539 52.2604C76.3446 47.044 84.6241 42.214 93.1923 37.9636C105.226 31.9745 117.838 27.0479 130.835 23.4737C145.084 19.5131 159.91 17.4845 174.736 17.388C186.77 17.2913 198.996 18.7403 210.453 22.3145C216.037 24.0533 221.428 26.6615 226.338 29.8493C230.285 32.3609 233.655 35.5487 236.736 38.9296C230.67 41.8276 224.99 45.6916 219.888 50.1352C212.86 40.3786 201.307 36.5147 189.465 35.0657C174.447 33.2303 158.947 35.5487 144.217 38.6398C137.863 39.9923 131.702 41.6344 125.54 43.4698C116.779 46.1746 108.115 49.5556 99.7389 53.5162C81.6396 62.2101 65.2731 74.0919 50.2545 87.2294C44.093 92.639 38.2204 98.3384 32.5403 104.328C26.9565 110.22 21.4689 116.306 16.1739 122.295C10.6863 128.574 5.29507 134.95 2.77804e-05 141.229L2.75778e-05 143.547L2.71724e-05 148.184L2.70542e-05 149.536C1.73294 147.701 3.46585 145.865 5.29507 144.127C3.46585 147.025 1.73294 150.019 2.67502e-05 153.014L2.64208e-05 156.781L2.63786e-05 157.264L2.61675e-05 159.679L2.6083e-05 160.645L2.59817e-05 161.804L2.58212e-05 163.64C0.577663 162.867 1.25161 162.191 1.92544 161.611C1.63662 162.964 1.25161 164.219 0.962794 165.572C0.577662 167.117 0.19253 168.663 2.52385e-05 170.305L2.51709e-05 171.078L2.36171e-05 188.852L2.33046e-05 192.426C0.288842 194.262 0.770287 196.097 1.34792 197.836C2.21438 202.376 3.27334 206.82 4.71743 211.07C7.60561 220.15 11.5528 228.748 16.4627 236.862C21.7577 245.749 28.4007 252.705 36.0062 259.563C43.3229 266.035 51.9874 273.28 54.0092 283.327C55.7421 291.441 52.6614 300.135 47.559 306.414C42.1676 312.983 33.5031 315.977 25.2235 314.818C17.3291 313.756 10.6864 308.346 5.68019 302.453C3.56215 299.942 1.73292 297.334 0.0963279 294.532L0.0963268 306.028C1.2516 308.056 3.0807 309.988 5.00624 311.823ZM446.322 307.283C431.303 315.301 418.884 327.859 412.434 343.701C400.207 373.454 410.894 415.572 441.893 428.902C443.241 429.482 444.589 429.965 446.033 430.448C421.291 432.187 395.008 415.282 390.387 390.166C383.552 352.782 412.434 317.523 446.322 306.028C448.344 305.351 450.365 304.772 452.484 304.192C450.365 305.255 448.344 306.221 446.322 307.283ZM1271.29 315.688C1277.54 320.807 1282.94 326.797 1287.36 333.462C1292.85 341.673 1297.76 351.236 1298.34 361.283C1298.82 369.494 1291.98 382.245 1282.36 376.642C1275.52 372.681 1274.08 363.408 1272.73 356.259C1269.65 340.32 1265.12 325.444 1253.38 313.659C1246.54 306.8 1238.65 301.294 1229.98 297.43C1241.83 300.135 1253.38 304.482 1264.26 310.278C1266.76 312.017 1269.07 313.852 1271.29 315.688ZM1341.85 343.895C1349.84 348.725 1357.64 354.038 1364.86 359.93C1379.59 371.909 1392.3 386.592 1402.89 402.337C1407.32 408.81 1410.98 416.055 1413.77 423.396C1415.12 426.874 1416.66 431.124 1417.24 435.375C1417.91 439.625 1417.72 443.875 1415.79 447.449C1408.96 459.911 1392.98 445.517 1386.62 439.625C1372.57 426.487 1364.48 408.52 1356.1 391.615C1347.05 373.358 1337.23 355.68 1324.72 339.838C1323.18 337.616 1321.54 335.491 1319.81 333.365C1327.32 336.457 1334.83 339.644 1341.85 343.895ZM1307.2 326.217C1312.39 331.144 1317.11 336.553 1321.16 342.542C1326.35 350.077 1330.59 358.385 1333.57 367.175C1339.25 383.694 1341.95 402.531 1334.73 418.953C1330.69 428.323 1323.75 436.534 1314.51 441.074C1304.02 446.194 1292.66 443.102 1283.9 436.051C1278.99 432.09 1275.43 427.164 1274.08 420.981C1272.54 414.316 1275.43 408.423 1279.57 403.303C1283.03 399.053 1289.48 396.831 1294.58 395.865C1297.18 395.382 1299.59 395.479 1301.71 395.962C1295.55 398.377 1290.16 403.497 1287.46 409.486C1285.82 413.253 1285.05 417.31 1285.82 421.464C1287.07 428.709 1293.53 432.96 1300.36 433.732C1308.16 434.602 1316.63 429.965 1321.73 424.362C1332.42 412.48 1331.46 393.16 1327.89 378.671C1324.24 363.504 1315.76 349.691 1305.56 338.099C1294.58 325.637 1281.01 315.301 1266.38 307.573C1263.49 305.738 1260.5 303.902 1257.52 302.357C1254.25 300.618 1250.78 298.783 1247.12 297.14C1253.19 298.203 1259.25 299.749 1265.12 301.681C1280.82 306.607 1295.26 315.011 1307.2 326.217ZM1336.27 264.78C1343.2 261.882 1350.33 259.177 1357.74 257.824C1362.75 256.955 1370.45 256.762 1372.57 262.654C1374.97 269.223 1367.75 277.144 1363.61 281.298C1357.35 287.674 1348.88 291.345 1340.51 294.146C1325.01 299.459 1308.83 301.391 1292.56 300.135C1280.72 299.266 1269.17 297.044 1257.42 295.305C1256.36 295.015 1255.21 294.725 1254.15 294.532C1254.82 294.339 1255.59 294.146 1256.27 293.953C1268.49 289.992 1281.11 287.577 1293.24 283.617C1308.25 278.69 1321.73 270.769 1336.27 264.78ZM1069.5 243.914C1058.52 241.016 1046.68 239.374 1035.22 239.664C1022.23 240.05 1009.04 243.721 998.352 251.159C989.399 257.341 979.675 269.223 978.905 281.008C967.159 274.343 952.141 274.44 941.358 283.327C933.368 289.992 928.265 301.584 932.309 311.727C932.886 313.079 935.004 312.403 934.715 311.051C933.175 301.777 937.892 293.47 944.632 287.577C951.659 281.395 960.709 280.332 969.47 282.844C986.222 287.674 995.849 305.641 995.945 322.256C996.041 336.843 989.687 351.429 976.883 359.061C965.138 366.016 950.6 366.402 937.507 363.698C922.681 360.606 909.011 352.589 900.057 340.224C890.622 327.28 887.253 310.568 888.023 294.822C889.66 260.046 913.054 230.873 945.883 220.44C972.454 212.036 999.989 216.576 1026.27 223.821C1039.65 227.492 1052.65 232.129 1065.26 238.022C1071.23 240.823 1077.3 244.3 1082.78 248.454C1082.69 248.454 1082.59 248.454 1082.49 248.454C1078.35 246.426 1073.73 244.977 1069.5 243.914ZM1048.7 284.389C1036.09 300.908 1026.56 319.841 1021.55 340.127C1017.61 356.066 1016.93 373.068 1019.15 389.296C1021.26 404.656 1027.04 420.402 1039.17 430.545C1058.91 447.063 1095.2 444.068 1109.07 421.078C1115.61 410.162 1115.03 395.865 1106.37 386.398C1098.38 377.608 1085.09 373.164 1073.44 375.193C1069.59 375.869 1066.22 377.511 1063.53 379.926C1065.36 375.386 1070.27 372.295 1074.89 370.363C1081.24 367.755 1088.37 367.079 1095.11 368.334C1109.16 370.943 1119.56 382.631 1123.41 395.769C1125.34 402.337 1125.34 409.389 1123.6 416.055C1121.58 423.783 1116.38 430.062 1110.7 435.568C1097.51 448.512 1078.55 454.115 1060.26 452.762C1027.72 450.444 1008.56 419.919 1005.76 389.779C1003.55 365.726 1005.38 340.61 1013.27 317.716C1018.47 302.55 1028.2 284.969 1040.23 274.053C1048.99 266.132 1059.58 259.853 1070.85 256.375C1074.12 255.409 1077.3 254.733 1080.47 254.54C1076.43 256.665 1072.58 259.37 1069.02 262.365C1061.41 268.837 1054.67 276.468 1048.7 284.389ZM1079.32 298.106C1082.3 310.664 1097.13 313.659 1107.53 317.233C1113.01 319.069 1118.21 321.677 1120.91 327.086C1124.37 333.848 1121.68 341.19 1116.19 345.827C1110.61 350.56 1102.23 352.395 1095.01 351.912C1085.77 351.333 1078.16 345.15 1072.48 338.388C1060.35 323.705 1058.23 304.482 1064.3 286.804C1067.09 278.69 1071.62 271.059 1078.16 265.552C1082.88 261.592 1088.46 259.66 1094.34 259.273C1083.65 268.161 1076.14 284.872 1079.32 298.106ZM696.151 297.044C687.39 313.949 681.517 333.172 680.169 352.975C679.11 369.3 680.843 386.495 687.294 402.241C693.455 417.31 704.719 435.278 720.893 439.818C728.595 441.943 738.415 441.267 744.287 435.954C749.486 431.317 752.085 423.879 748.62 416.634C743.421 405.912 730.328 400.695 719.641 402.917C721.085 401.178 722.915 399.729 725.418 398.667C730.231 396.541 736.874 394.803 742.362 396.735C748.908 398.956 754.974 402.531 757.862 409.486C760.557 415.765 760.75 422.334 759.21 428.709C756.418 440.011 749.005 449.381 737.259 450.734C726.862 451.99 716.079 448.512 706.837 442.523C690.663 431.897 681.036 413.446 675.452 395.286C670.157 378.284 668.713 360.317 671.601 343.412C674.393 326.507 681.036 310.664 690.567 297.14C695.573 290.185 701.157 283.616 707.415 277.917C707.511 277.821 707.703 277.724 707.8 277.627C708.377 277.338 708.859 276.951 709.436 276.661C704.334 282.844 699.905 289.799 696.151 297.044ZM644.837 386.109C638.291 403.497 626.834 418.759 612.201 430.255C599.781 440.011 584.666 445.034 569.648 449.285L569.552 449.285C558.48 417.407 561.561 380.602 579.564 351.912C589.769 335.684 604.499 320.614 622.309 312.983C625.679 311.534 629.145 310.471 632.707 309.602C636.943 308.539 641.371 307.863 645.607 307.573C638.772 317.813 631.07 327.376 623.657 337.229C618.17 341.093 608.061 338.582 603.729 334.621C602.958 333.945 602.092 335.007 602.766 335.78C606.809 340.031 613.837 342.832 620.095 342.252C617.688 345.44 615.474 348.725 613.26 352.106C613.067 352.299 612.778 352.492 612.682 352.782C608.253 359.737 595.545 357.129 590.443 352.492C589.673 351.816 588.806 352.975 589.48 353.651C594.005 358.385 602.381 361.379 608.927 359.737C606.232 365.34 603.44 371.812 598.722 374.806C593.331 378.187 586.688 377.704 581.682 373.937C581.008 373.454 580.238 374.42 580.912 375C585.34 378.96 593.235 380.989 599.011 378.767C596.797 383.694 595.545 391.711 591.309 395.286C587.94 398.184 582.067 398.184 578.312 395.962C577.735 395.672 577.35 396.445 577.831 396.831C581.489 399.343 587.555 400.116 591.694 397.894C589.576 404.076 587.844 410.355 586.207 416.634C585.918 417.6 587.458 417.793 587.747 416.924C589.48 410.645 591.502 404.463 593.812 398.473C595.545 402.434 600.07 405.622 604.114 406.298C604.691 406.395 604.98 405.525 604.402 405.332C600.07 404.269 593.909 398.28 596.027 393.354C596.123 393.16 596.123 392.871 596.123 392.677C597.952 388.234 599.974 383.79 602.092 379.54C603.729 385.239 609.216 390.359 614.704 392.001C615.474 392.291 616.052 391.035 615.185 390.745C599.204 384.563 605.943 370.846 612.778 360.51C614.03 367.079 619.806 373.454 625.775 375.772C626.642 376.159 627.315 374.807 626.449 374.42C620.287 371.426 612.971 360.703 617.592 353.941C617.784 353.748 617.881 353.458 617.881 353.265C620.48 349.691 623.272 346.213 626.064 342.735C627.316 349.401 633.092 355.68 639.061 357.998C639.927 358.385 640.601 357.032 639.735 356.646C634.151 353.941 627.604 344.861 629.915 338.099C637.809 328.728 645.896 319.358 652.154 308.926C652.154 317.233 652.635 325.444 652.635 333.655C652.539 351.333 651.095 369.494 644.837 386.109ZM1283.99 104.811C1282.26 99.6909 1278.89 95.1507 1274.27 92.0595C1276.29 92.6391 1278.31 92.9289 1280.43 92.9289C1289 92.9289 1296.8 88.3888 1301.13 81.1438C1301.23 81.337 1301.32 81.6268 1301.42 81.82C1303.44 86.0703 1306.62 89.4513 1310.57 91.8663C1308.93 91.4799 1307.29 91.2867 1305.56 91.2867C1300.94 91.2867 1296.51 92.6391 1292.76 94.9575C1289 97.3725 1285.92 100.753 1283.99 104.811ZM1411.65 81.82C1413.77 81.82 1415.89 82.2064 1418.01 82.8826C1428.21 86.3602 1433.7 97.5657 1430.23 107.805C1427.54 115.726 1420.03 121.136 1411.65 121.136C1409.53 121.136 1407.42 120.75 1405.3 120.073C1395.09 116.596 1389.61 105.39 1393.07 95.1507C1395.86 87.2295 1403.28 81.82 1411.65 81.82ZM1382.87 45.5951C1384.98 45.5951 1387.1 45.9815 1389.22 46.6577C1399.43 50.1353 1404.91 61.3408 1401.35 71.5804C1398.66 79.5982 1391.24 84.9112 1382.77 84.9112C1380.65 84.9112 1378.53 84.5248 1376.42 83.8486C1366.21 80.371 1360.72 69.1654 1364.19 58.9259C1366.98 50.9081 1374.49 45.5951 1382.87 45.5951ZM1350.52 50.7149C1348.4 50.7149 1346.28 50.3285 1344.16 49.6523C1333.96 46.1747 1328.47 34.9691 1331.94 24.7296C1334.63 16.7118 1342.05 11.3989 1350.52 11.3989C1352.64 11.3989 1354.75 11.7853 1356.87 12.4614C1367.08 15.939 1372.57 27.1446 1369.1 37.3841C1366.4 45.3053 1358.89 50.7149 1350.52 50.7149ZM1355.43 82.5928C1357.55 82.5928 1359.66 82.9791 1361.78 83.6554C1366.69 85.3942 1370.74 88.8718 1373.05 93.6051C1375.36 98.3385 1375.74 103.651 1374.01 108.578C1371.31 116.596 1363.9 121.909 1355.43 121.909C1353.31 121.909 1351.19 121.522 1349.07 120.846C1338.87 117.369 1333.38 106.163 1336.85 95.9235C1339.54 87.9058 1347.05 82.5928 1355.43 82.5928ZM1304.5 64.8184C1307.2 56.8006 1314.71 51.4877 1323.08 51.4877C1325.2 51.4877 1327.32 51.8741 1329.44 52.5503C1334.44 54.2891 1338.39 57.7667 1340.7 62.5001C1343.01 67.2334 1343.39 72.5464 1341.66 77.473C1340.7 80.1778 1339.25 82.6894 1337.33 84.6214C1333.67 88.4853 1328.57 90.8037 1323.08 90.8037C1320.96 90.8037 1318.85 90.4173 1316.73 89.7411C1311.72 88.0023 1307.77 84.5247 1305.46 79.7914C1304.69 78.1492 1304.12 76.4104 1303.73 74.6716C1304.5 71.5804 1304.69 68.4892 1304.31 65.398C1304.31 65.2048 1304.4 65.0116 1304.5 64.8184ZM1262.81 77.3764C1260.5 72.643 1260.12 67.33 1261.85 62.3068C1264.55 54.3857 1272.06 48.9761 1280.43 48.9761C1282.55 48.9761 1284.67 49.3625 1286.79 50.0387C1291.79 51.7775 1295.74 55.2551 1298.05 59.9885C1298.82 61.6306 1299.4 63.3694 1299.78 65.1082C1299.01 68.1994 1298.82 71.2906 1299.21 74.3818C1299.11 74.575 1299.11 74.7682 1299.01 74.9614C1296.32 82.8826 1288.81 88.2921 1280.43 88.2921C1278.31 88.2921 1276.2 87.9057 1274.08 87.2295C1269.07 85.5874 1265.12 82.1098 1262.81 77.3764ZM1279.57 118.721C1276.87 126.642 1269.46 132.052 1260.98 132.052C1258.87 132.052 1256.75 131.665 1254.63 130.989C1244.43 127.512 1238.94 116.306 1242.4 106.066C1245.1 98.0487 1252.61 92.7357 1260.98 92.7357C1263.1 92.7357 1265.22 93.1221 1267.34 93.7983C1277.54 97.2759 1283.03 108.481 1279.57 118.721ZM1286.02 114.374C1286.11 112.635 1286.4 110.896 1287.07 109.158C1289.77 101.14 1297.28 95.8269 1305.66 95.8269C1307.77 95.8269 1309.89 96.2133 1312.01 96.8895C1322.21 100.367 1327.7 111.573 1324.24 121.812C1321.54 129.733 1314.13 135.143 1305.66 135.143C1303.54 135.143 1301.42 134.757 1299.3 134.08C1299.21 134.08 1299.21 134.08 1299.11 133.984C1290.64 131.086 1285.53 122.971 1286.02 114.374ZM1272.44 151.565C1275.14 143.547 1282.65 138.234 1291.02 138.234C1293.14 138.234 1295.26 138.621 1297.38 139.297C1302.29 141.036 1306.33 144.513 1308.64 149.247C1310.95 153.98 1311.34 159.293 1309.6 164.219C1306.91 172.141 1299.4 177.55 1291.02 177.55C1288.9 177.55 1286.69 177.164 1284.67 176.488C1283.51 176.101 1282.36 175.522 1281.3 174.942C1279.47 173.203 1277.54 171.658 1275.62 170.015C1271.57 164.992 1270.13 158.134 1272.44 151.565ZM1229.89 234.544C1198.6 221.793 1174.72 193.586 1165.29 161.225C1165.77 161.032 1166.16 160.935 1166.54 160.742C1180.89 155.622 1195.71 151.178 1211.02 151.855C1229.6 152.627 1247.7 158.327 1263.1 168.663C1266.86 171.175 1270.42 173.976 1273.79 176.874C1283.71 185.568 1292.18 196.097 1299.88 206.723C1304.69 213.389 1309.03 220.44 1313.84 227.106C1302.67 222.372 1290.73 219.474 1278.8 216.383C1273.02 212.326 1273.02 201.12 1276 195.614C1276.48 194.745 1275.23 194.069 1274.66 194.841C1271.19 200.251 1270.03 208.752 1272.92 214.838C1268.59 213.678 1264.35 212.423 1260.12 211.07C1259.93 210.877 1259.73 210.78 1259.44 210.684C1251.74 207.882 1251.45 194.938 1254.73 188.852C1255.21 187.983 1253.96 187.307 1253.38 188.08C1249.91 193.489 1248.76 201.99 1251.65 208.076C1240 203.729 1226.62 196.484 1236.05 182.187C1236.53 181.414 1235.47 180.738 1234.89 181.414C1231.43 185.858 1229.89 193.296 1231.91 198.899C1227.67 196.677 1223.44 194.165 1219.39 191.654C1219.3 191.461 1219.11 191.364 1218.91 191.171C1214.29 188.369 1215.83 179.965 1218.82 176.584C1219.2 176.101 1218.53 175.522 1218.05 175.908C1215.16 178.806 1213.33 184.022 1214.29 188.273C1208.9 184.699 1203.61 180.835 1198.6 176.777C1197.83 176.198 1196.77 177.26 1197.54 177.84C1202.45 182.09 1207.65 186.051 1212.94 189.915C1208.32 190.398 1203.8 194.648 1202.26 198.802C1202.07 199.382 1202.93 199.768 1203.12 199.188C1204.95 195.228 1209.67 191.75 1214.1 192.137C1219.59 192.62 1225.36 198.319 1229.98 201.12C1224.02 202.666 1218.82 208.945 1217.47 214.838C1217.28 215.707 1218.53 216.093 1218.72 215.224C1220.55 209.235 1225.85 204.984 1232.1 204.501C1237.69 204.115 1243.75 207.882 1249.14 210.78C1242.79 213.292 1237.78 220.537 1236.82 227.106C1236.72 228.072 1238.07 228.362 1238.26 227.396C1239.8 220.73 1248.57 211.167 1256.17 214.258C1256.46 214.355 1256.75 214.451 1257.04 214.451C1260.79 215.9 1264.55 217.253 1268.3 218.508C1262.91 221.6 1258.77 228.072 1258 233.868C1257.81 234.834 1259.25 235.124 1259.44 234.158C1260.79 228.362 1267.53 220.44 1274.17 220.344C1285.92 224.015 1297.76 227.299 1309.22 231.646C1302.38 235.703 1294.78 239.084 1287.07 240.823C1268.4 245.46 1247.7 241.789 1229.89 234.544ZM1146.9 233.095C1114.55 210.877 1090.2 174.266 1090.2 134.08C1090.2 119.301 1093.95 103.458 1103.58 91.8663C1111.67 82.1097 1123.51 75.541 1135.83 73.2226C1148.73 70.8076 1161.44 74.2852 1170.87 83.3655C1180.21 92.3493 1184.74 105.39 1187.34 118.141C1184.93 117.465 1182.43 117.079 1179.73 116.982C1174.82 116.789 1169.91 117.755 1165.29 119.397C1164.23 119.784 1163.27 120.17 1162.21 120.653C1155.85 123.454 1151.62 127.995 1147.29 133.308C1135.25 147.797 1140.55 170.788 1146.9 186.437C1154.22 204.405 1166.64 220.344 1181.17 232.998C1189.07 239.953 1197.54 245.943 1207.07 250.29C1214.48 253.671 1222.38 255.313 1230.47 256.279C1233.55 256.665 1236.63 257.052 1239.9 257.245C1235.38 257.728 1230.85 258.018 1226.33 258.211C1216.51 257.921 1206.78 256.858 1197.06 254.637C1179.15 250.773 1162.11 243.431 1146.9 233.095ZM1045.24 136.689C1048.32 124.227 1062.18 110.317 1075.27 117.369C1070.56 123.937 1068.63 131.182 1068.44 138.621C1068.15 147.894 1070.46 157.554 1073.44 166.634C1075.95 174.362 1080.18 181.704 1084.23 188.659C1088.66 196.194 1093.57 203.342 1099.34 209.814C1110.7 222.662 1124.28 233.964 1139.39 242.175C1127.36 237.152 1115.61 231.163 1104.44 224.401C1093.28 217.736 1082.78 210.008 1072.58 202.086C1063.72 193.199 1056.5 182.67 1050.92 171.368C1045.81 160.838 1042.35 148.377 1045.24 136.689ZM1031.28 79.1152C1031.66 84.1383 1027.33 87.2295 1022.81 86.9397C1022.42 86.9397 1021.94 86.8431 1021.55 86.7465C1020.3 86.4567 1019.24 85.8771 1018.47 85.0077C1015.87 82.3029 1015.39 77.3764 1017.32 74.1886C1018.67 71.9668 1020.49 71.0008 1022.42 70.8076C1026.46 70.5178 1030.89 74.1886 1031.28 79.1152ZM1028.29 69.3586C1023.09 68.296 1021.46 61.051 1024.06 56.8972C1025.4 54.6755 1027.23 53.7095 1029.16 53.5163C1033.3 53.2265 1037.73 56.8972 1038.11 61.7272C1038.11 61.9204 1038.11 62.017 1038.11 62.1136C1037.92 62.8864 1037.82 63.7558 1037.82 64.5286C1036.57 68.296 1032.43 70.228 1028.29 69.3586ZM1044.85 73.9954C1041.19 73.2226 1039.36 69.4552 1039.36 65.7844C1039.85 64.7218 1040.13 63.5626 1040.13 62.2102C1040.23 61.9204 1040.42 61.7272 1040.52 61.4374C1041.87 59.2156 1043.7 58.2496 1045.62 58.0564C1049.76 57.7666 1054.19 61.4374 1054.58 66.2674C1054.77 68.5858 1054 70.5178 1052.55 71.8702C1052.17 71.8702 1051.69 72.16 1051.69 72.643C1049.86 73.9954 1047.35 74.5749 1044.85 73.9954ZM1011.25 152.241C998.833 138.717 989.302 122.392 984.681 104.617C980.349 88.0023 980.06 68.296 986.895 52.2605C992.094 39.9923 1002.11 30.2357 1013.66 23.8602C1034.45 12.3648 1061.89 13.7172 1075.95 34.8725C1084.03 47.0441 1084.71 60.7612 1076.62 73.0294C1073.73 77.473 1069.02 81.6267 1063.63 82.3029C1058.23 82.9791 1055.06 78.439 1053.61 73.8022C1055.44 72.16 1056.69 69.745 1056.69 66.9436C1056.89 59.5054 1046.1 52.2605 1040.13 58.153C1039.94 58.3462 1039.65 58.636 1039.46 58.9258C1037.05 52.9367 1028.58 48.4931 1023.58 53.5163C1019.92 57.187 1020.59 64.915 1024.15 68.9722C1021.55 68.3926 1018.86 68.779 1016.74 70.9042C1012.99 74.6716 1013.76 82.7859 1017.7 86.7465C1017.61 86.9397 1017.51 87.2295 1017.51 87.4227C1015.87 92.2527 1015.01 97.4691 1014.72 102.589C1013.95 113.988 1016.36 125.193 1019.92 135.916C1025.12 151.372 1033.11 167.311 1044.95 178.999C1042.25 177.454 1039.65 175.908 1037.05 174.266C1033.59 171.658 1029.93 169.049 1026.37 166.538C1021.07 162.094 1015.97 157.264 1011.25 152.241ZM807.635 89.4513C803.206 67.4266 810.716 43.1801 820.728 23.184C820.728 28.1105 820.728 33.1337 821.402 38.0603C822.365 44.9189 824.001 51.5842 826.312 58.153C830.741 70.6144 837.576 82.1097 846.144 92.1561C854.809 102.492 865.399 110.413 877.626 115.92C886.483 119.88 895.821 122.585 905.16 125.097C891.393 125.773 877.914 128.381 864.917 132.535C837.768 137.075 812.93 116.016 807.635 89.4513ZM789.824 124.71C794.734 114.084 812.641 127.995 818.514 131.376C824.772 135.046 833.051 140.166 841.042 140.649C820.824 149.44 777.79 150.695 789.824 124.71ZM720.219 225.27C696.44 236.283 669.868 242.755 643.586 241.885C619.229 241.113 595.16 232.805 578.601 214.258C558.865 192.137 552.415 159.389 566.952 132.728C572.055 123.454 580.238 115.823 590.443 112.732C600.455 109.834 610.275 112.056 617.207 119.88C623.753 127.318 626.449 137.558 626.256 147.314C626.064 157.844 621.924 166.924 614.896 174.169C613.452 175.618 611.912 177.067 610.275 178.42C611.045 179.482 611.816 180.448 612.586 181.414C616.34 185.761 621.058 189.528 625.775 192.523C641.468 202.473 659.471 208.848 677.859 211.167C708.281 214.934 740.725 208.365 767.682 193.103C767.393 193.392 767.008 193.682 766.719 193.972C761.135 198.609 755.551 203.246 749.871 207.882C740.629 214.644 730.52 220.44 720.219 225.27ZM567.819 272.411C547.601 266.905 528.25 257.438 510.825 245.846C496.962 236.572 485.216 225.56 476.359 211.263C468.465 198.416 463.362 184.022 460.474 169.243C454.698 139.683 458.741 107.515 474.241 81.4335C490.897 53.323 521.03 36.3215 553.763 37.0943C571.958 37.5773 590.347 44.629 602.958 58.153C609.794 65.4946 612.682 74.6715 615.281 83.9451C597.76 69.5517 568.108 69.5517 549.142 80.7573C522.763 96.3098 512.173 129.54 511.98 158.713C511.884 192.62 527.384 224.691 554.34 245.266C567.434 255.216 583.511 263.717 599.685 267.291C609.505 269.416 619.421 270.962 629.433 271.831C619.325 274.15 609.024 275.888 598.53 276.951C588.325 276.468 577.927 275.212 567.819 272.411ZM452.195 243.141C440.738 231.453 431.977 216.48 433.133 199.575C433.614 193.006 435.539 186.244 439.198 180.738C439.775 179.868 440.353 179.192 440.931 178.419C441.99 229.521 498.983 266.422 544.809 277.144C545.098 277.241 545.387 277.241 545.676 277.337C537.396 276.661 529.309 275.599 521.223 274.246C508.033 272.025 495.133 268.837 482.328 264.973C471.257 259.37 461.052 252.125 452.195 243.141ZM207.469 404.173C205.639 403.786 203.81 403.303 201.885 402.724C169.826 392.388 149.608 357.708 157.214 324.575C157.599 323.029 157.984 321.483 158.465 319.938C158.947 318.199 159.524 316.557 160.102 314.915C168.285 291.731 185.903 272.99 209.009 263.814C234.521 253.574 263.788 253.477 290.552 257.728C294.403 258.307 298.158 259.08 301.912 259.853C301.142 259.853 300.468 259.756 299.698 259.756C293.44 259.37 287.183 259.37 280.925 259.756C268.698 260.529 256.568 263.041 245.015 267.195C221.524 275.695 202.27 292.697 193.028 316.267C192.642 317.233 194.087 317.909 194.472 317.04C204.58 294.049 223.45 277.82 246.844 269.609C258.204 265.649 270.239 263.814 282.176 263.137C287.086 262.848 291.996 262.848 296.906 263.137C291.515 263.62 286.22 264.393 281.214 265.456C267.158 268.354 253.872 274.439 242.223 282.747C217.77 300.135 202.27 327.473 196.686 356.742C196.493 357.708 197.938 357.998 198.226 357.032C204.195 328.728 219.406 302.55 242.801 285.259C253.968 277.048 266.676 271.348 280.155 268.161C287.375 266.422 294.885 265.649 302.298 265.552C305.282 265.456 308.17 265.649 311.155 265.939C303.356 267.098 295.558 268.74 288.049 271.058C253.198 281.491 227.59 310.278 216.518 344.378C209.972 363.504 207.565 383.79 207.469 404.173ZM401.555 271.831C401.748 273.956 401.651 276.082 401.074 278.303C398.956 287.191 391.157 293.373 382.011 293.373C380.471 293.373 378.931 293.18 377.391 292.793C372.288 291.538 367.956 288.446 365.26 284.003C363.527 281.201 362.564 278.11 362.372 275.019C362.276 273.087 362.468 271.155 362.853 269.223C364.586 261.882 370.266 256.375 377.391 254.637C378.835 254.25 380.375 254.057 381.915 254.057C383.456 254.057 384.996 254.25 386.537 254.637C395.008 256.665 400.785 263.717 401.555 271.831ZM361.506 286.418C361.891 286.997 362.276 287.674 362.757 288.253C343.406 313.466 319.819 337.905 288.627 347.276C288.049 343.315 284.968 339.934 280.636 339.161C273.993 338.002 267.062 347.179 269.18 353.361C271.971 361.283 284.776 359.447 287.857 352.685C288.434 351.429 288.627 350.174 288.723 348.918C296.81 346.889 304.512 344.184 311.925 340.224C319.242 336.263 325.981 331.626 332.527 326.603C345.332 316.654 356.114 304.579 366.126 291.924C368.726 294.242 371.807 295.981 375.272 297.044C371.903 304.482 369.977 312.693 366.993 320.324C363.527 328.825 358.521 336.167 353.033 343.412C342.54 357.322 330.024 367.755 314.043 374.806C306.437 378.091 298.447 380.602 290.552 382.824C282.465 385.143 274.474 387.654 266.291 389.49C255.99 391.808 245.593 393.547 236.158 397.894C235.195 398.377 234.232 398.86 233.27 399.343C234.232 395.479 235.292 391.615 236.254 387.847C238.372 379.83 240.971 372.005 244.245 364.374C250.31 350.077 258.589 336.843 268.794 325.251C279.288 313.273 292.189 303.613 306.245 296.174C322.226 287.77 340.903 281.008 359.099 280.525C359.484 282.554 360.35 284.582 361.506 286.418ZM285.642 352.202C283.139 356.453 277.555 357.805 273.993 355.68C272.357 354.714 271.105 352.975 270.816 350.463C270.335 345.633 274.956 339.741 280.058 341.093C285.161 342.349 288.434 347.469 285.642 352.202ZM390.772 249.227C389.232 249.227 387.692 249.034 386.151 248.647C383.359 247.971 380.856 246.715 378.642 245.073C372.769 240.436 369.785 232.708 371.614 224.98C372.962 219.474 376.524 214.934 381.145 212.326C383.937 210.78 387.21 209.911 390.676 209.911C392.216 209.911 393.757 210.104 395.297 210.491C400.4 211.746 404.732 214.838 407.428 219.281C410.123 223.725 410.99 229.038 409.834 234.157C409.546 235.317 409.257 236.379 408.776 237.345C405.695 244.494 398.763 249.227 390.772 249.227ZM393.468 205.564C392.602 205.467 391.639 205.371 390.772 205.371C387.595 205.371 384.611 205.95 381.819 207.11C378.353 191.943 373.925 176.97 366.993 163.06C363.335 155.622 359.195 148.474 354.381 141.712C349.471 134.853 343.695 129.154 337.341 123.744C337.822 122.585 338.207 121.329 338.207 120.073C338.4 112.635 327.617 105.39 321.648 111.283C317.027 115.92 319.338 127.125 325.788 129.057C330.024 130.313 334.26 128.574 336.475 125.29C360.254 147.025 370.844 178.709 377.391 209.428C375.754 210.587 374.213 211.843 372.866 213.389C355.922 206.047 340.999 192.523 329.158 178.419C318.953 166.248 310.673 152.338 305.571 137.268C300.565 122.585 297.869 107.226 297.676 91.6731C297.58 83.4621 298.061 75.1545 299.217 66.9435C299.698 63.0796 300.18 59.1189 300.757 55.1584C301.142 55.6414 301.624 56.1244 302.009 56.6074C309.229 64.6251 318.664 70.4211 327.617 76.7967C334.453 81.6267 340.999 87.0363 347.546 92.2527C353.996 97.3724 360.446 102.685 366.223 108.675C378.353 121.233 385.959 135.722 390.387 152.531C392.698 161.321 394.623 170.112 394.527 179.289C394.527 187.983 392.987 196.87 393.468 205.564ZM326.27 127.125C321.071 126.062 319.434 118.818 322.033 114.664C323.381 112.442 325.21 111.476 327.136 111.283C331.276 110.896 335.704 114.664 336.089 119.494C336.474 125 331.372 128.091 326.27 127.125ZM282.947 40.282C283.813 38.1569 284.679 36.0316 285.642 33.9065C289.108 25.7921 292.959 17.7743 296.906 9.85317C298.832 13.2342 300.95 16.5185 303.068 19.6097C308.074 27.0479 313.85 34.1963 320.301 40.3787C331.853 51.6808 345.428 60.6646 358.81 69.5518C372.095 78.4389 385.285 87.6158 395.875 99.6908C407.62 113.118 413.782 128.96 416.67 146.445C420.617 169.919 420.425 195.421 411.856 217.929C411.664 217.639 411.471 217.253 411.279 216.963C407.909 211.457 402.614 207.593 396.356 206.047C396.164 205.95 395.875 205.95 395.682 205.95C398.089 188.369 398.474 169.919 393.853 152.724C389.617 136.882 383.071 122.392 371.903 110.22C360.061 97.3724 345.717 86.1669 331.372 76.1205C322.033 69.5517 311.443 63.7558 303.549 55.4482C302.683 54.5788 301.912 53.7094 301.142 52.7434C300.468 51.874 299.794 51.0046 299.121 50.1352C298.928 50.8114 298.639 51.4876 298.447 52.1638C297.965 53.5162 297.58 54.8686 297.195 56.221C296.136 60.1816 295.366 64.2388 294.692 68.3925C293.344 76.6035 292.478 84.9111 292.381 93.2186C292.093 109.254 294.211 125.386 299.506 140.552C305.089 156.491 313.658 171.464 324.729 184.215C337.052 198.319 351.493 212.036 368.822 219.668C368.148 221.02 367.667 222.566 367.282 224.111C365.549 231.259 367.282 238.504 371.325 244.107C366.8 242.562 361.794 241.885 357.366 241.113C349.664 239.76 341.866 238.698 334.164 237.249C333.297 237.055 332.431 236.862 331.565 236.766C320.686 234.64 309.807 232.419 299.024 229.81C272.068 223.435 244.437 215.321 220.754 200.444C209.972 193.682 199.959 185.085 193.028 174.169C189.658 168.856 186.962 163.06 185.326 156.878C183.496 150.116 183.208 143.354 182.726 136.399C188.888 135.046 194.664 127.705 190.813 121.909C187.251 116.499 175.795 116.499 172.618 122.585C169.633 128.284 172.81 135.143 178.972 136.495C179.549 136.592 180.223 136.688 180.801 136.688C176.469 164.026 194.375 188.852 215.555 203.825C222.583 208.752 230.093 213.099 237.891 216.77C237.217 216.576 236.543 216.48 235.773 216.287C223.065 213.195 210.646 209.428 198.226 205.178C173.965 196.87 151.053 183.249 133.338 164.509C136.419 161.515 138.056 157.071 135.553 153.207C131.99 147.797 120.534 147.797 117.357 153.883C114.372 159.583 117.549 166.441 123.711 167.793C126.503 168.47 129.68 167.407 132.183 165.475C149.897 185.278 172.521 200.251 197.264 209.814C206.506 213.389 216.037 216.576 225.76 219.378C215.748 218.315 205.736 217.542 195.819 217.349C169.537 216.77 143.158 221.889 119.475 233.288C115.431 228.555 104.841 228.844 101.857 234.544C98.8725 240.243 102.05 247.102 108.211 248.454C115.239 250 124.096 241.402 120.438 234.544C143.736 224.304 169.73 220.537 195.049 222.083C208.142 222.855 221.043 224.111 233.944 226.14C234.521 226.236 235.003 226.333 235.58 226.429C227.108 226.912 218.732 228.072 210.549 229.907C185.326 235.606 159.332 251.835 152.978 278.69C148.549 278.014 143.543 279.463 141.714 283.133C138.73 288.833 141.907 295.691 148.068 297.044C155.288 298.686 164.531 289.412 159.91 282.457C158.851 280.815 157.022 279.656 154.903 279.076C157.792 272.99 160.68 267.098 164.723 261.688C168.574 256.665 173.292 252.318 178.394 248.647C188.888 241.209 201.403 237.055 214.015 234.93C241.549 230.197 270.142 233.288 297.58 237.635C308.555 239.374 319.434 241.499 330.313 243.624C331.179 243.817 332.046 244.011 333.009 244.204C340.71 245.749 348.316 247.778 355.922 249.42C360.831 250.579 366.415 251.932 371.71 252.028C365.356 255.12 360.543 260.916 358.81 268.161C358.425 269.803 358.232 271.542 358.136 273.184C339.363 273.667 320.878 280.718 304.223 289.123C289.108 296.657 275.534 307.283 264.366 319.938C253.68 331.916 245.689 346.116 239.816 360.993C236.832 368.721 234.425 376.738 232.596 384.853C231.729 388.91 230.863 392.967 230.381 397.024C230.189 398.377 230.093 399.826 229.996 401.178C229.996 401.854 229.9 402.627 229.9 403.303C230.863 402.724 231.729 402.144 232.692 401.661C234.04 400.888 235.484 400.309 236.928 399.633C247.133 395.382 258.686 394.03 269.468 391.518C286.509 387.751 304.03 382.824 319.819 375.386C334.741 368.431 346.294 357.515 356.21 344.474C366.704 330.757 373.251 314.142 377.679 297.43C379.22 297.72 380.664 297.817 382.204 297.817C388.077 297.817 393.564 295.691 397.704 292.117C396.549 315.301 387.21 337.905 375.176 357.515C365.838 372.585 354.189 384.949 338.207 392.774C323.863 399.922 308.074 403.303 292.478 406.491C276.689 409.679 260.804 412.77 245.785 418.759C237.409 422.14 229.419 426.487 221.909 431.414C218.829 433.539 215.652 435.664 212.475 438.079C211.801 429.289 211.319 420.401 211.127 411.514C211.127 409.196 211.031 406.878 211.127 404.559C211.223 386.881 212.86 369.3 217.673 352.202C222.487 334.718 230.381 317.813 242.512 304.096C254.931 290.089 271.49 278.883 289.589 273.763C302.683 270.093 316.642 267.484 330.698 266.905C334.26 266.712 337.822 266.712 341.384 266.808C339.844 266.229 338.207 265.746 336.571 265.166C334.934 264.586 333.201 264.103 331.565 263.524C306.341 255.603 279.77 250.483 253.294 250.579C227.204 250.579 200.248 256.762 179.934 274.053C166.649 285.355 156.444 300.908 151.726 317.909C138.922 322.932 126.021 327.569 113.41 332.689C113.698 317.136 112.928 301.004 116.779 285.838C118.32 279.559 120.919 273.57 124.289 267.871C124.962 266.711 125.636 265.552 126.407 264.49C123.807 264.2 121.304 263.91 118.705 263.427C115.913 262.944 113.025 262.461 110.233 261.785C102.242 260.046 94.4439 257.728 86.7421 255.216C80.1955 252.994 73.3601 250.773 67.1023 247.585C72.6862 236.476 80.2918 227.009 90.1116 219.281C100.22 211.263 112.062 206.047 123.903 200.927C125.059 200.444 125.444 198.899 124.962 197.933C125.733 197.256 126.022 195.711 125.155 194.841C116.202 185.568 107.248 176.294 100.894 164.992C94.7327 154.076 91.2669 142.388 90.3041 130.023C97.2357 129.443 104.36 130.023 111.292 130.506C119.379 131.086 127.562 131.955 135.553 133.404C138.344 133.887 141.233 134.467 144.025 135.143C146.528 135.722 149.031 136.399 151.534 137.171C151.245 135.819 151.053 134.563 150.86 133.211C149.897 126.642 149.801 120.073 150.764 113.698C152.978 98.2418 159.813 83.6553 165.397 69.1653C175.121 78.7287 185.326 87.9057 195.242 97.3724C193.22 114.857 196.686 133.211 204.773 148.667C217 172.334 239.624 188.369 263.692 198.319C288.145 208.462 314.62 213.872 340.999 216.19C342.732 216.383 344.561 216.48 346.294 216.576C348.027 216.673 349.664 216.77 351.301 216.866C348.027 215.61 344.754 214.258 341.481 212.712C340.037 212.036 338.496 211.263 337.052 210.587C325.981 204.984 315.583 198.126 306.052 190.688C291.322 178.999 280.155 162.384 273.993 144.706C267.928 127.511 267.158 108.771 269.276 90.8036C271.298 73.5123 276.4 56.6074 282.947 40.282ZM179.934 134.273C174.447 133.597 172.329 127.898 174.351 123.165C176.372 118.238 183.785 118.045 187.444 121.426C189.273 123.165 189.947 125.193 189.754 127.125C189.177 131.182 184.748 134.853 179.934 134.273ZM124.674 165.572C119.186 164.896 117.068 159.196 119.09 154.463C121.111 149.536 128.621 149.343 132.183 152.724C134.012 154.463 134.686 156.491 134.493 158.423C134.012 162.481 129.584 166.151 124.674 165.572ZM118.897 239.277C118.416 243.431 113.987 247.102 109.077 246.522C103.59 245.846 101.472 240.147 103.494 235.413C105.515 230.487 112.928 230.293 116.587 233.674C118.416 235.317 119.09 237.345 118.897 239.277ZM156.348 282.071C158.177 283.81 158.851 285.838 158.658 287.77C158.177 291.924 153.748 295.595 148.934 295.015C143.447 294.339 141.329 288.64 143.351 283.906C145.372 278.98 152.785 278.786 156.348 282.071ZM328.58 211.65C328.772 211.65 328.869 211.746 329.061 211.746C328.869 211.746 328.676 211.746 328.58 211.65ZM241.357 44.4358C251.273 39.9923 262.344 37.8671 273.608 38.7364C275.534 38.9296 277.363 39.1229 279.288 39.5093C271.683 58.4428 266.195 78.0525 264.655 98.5316C261.959 134.273 274.667 170.692 302.971 193.682C308.748 198.319 314.909 202.666 321.263 206.53C318.856 205.757 316.45 204.888 314.139 203.922C307.304 201.024 300.757 197.45 294.692 193.103C283.428 185.085 273.801 174.845 266.676 163.06C251.562 138.137 247.422 108.192 252.621 79.6947C252.813 78.7287 251.273 78.4389 251.08 79.4049C245.111 108.578 249.155 139.78 265.136 165.185C272.742 177.357 282.754 187.983 294.596 196.097C298.832 198.995 303.453 201.7 308.266 204.212C303.645 202.569 299.121 200.637 294.692 198.512C283.909 193.296 273.512 187.017 264.462 178.999C245.881 162.481 234.618 140.263 233.944 115.147C233.944 114.084 232.403 114.277 232.307 115.243C231.922 140.456 243.282 163.64 261.767 180.448C270.816 188.659 281.117 195.614 292.189 201.024C297.869 203.729 303.645 206.144 309.614 208.172C310.866 208.655 312.214 209.042 313.561 209.525C309.133 208.752 304.801 207.786 300.372 206.723C273.993 200.444 247.037 189.142 227.301 170.015C209.49 152.724 200.248 128.671 201.5 104.038C201.596 102.299 201.692 100.56 201.885 98.8214C202.077 97.2758 202.27 95.6336 202.559 94.088C205.062 79.1151 212.667 65.9775 223.45 56.3176C228.745 51.391 234.81 47.3338 241.357 44.4358ZM107.826 57.0903C90.4967 69.2619 74.4191 83.2689 59.208 99.401C45.6335 113.794 34.9471 129.733 26.2825 147.508C19.3509 161.901 11.5528 181.414 19.9285 196.773C30.9036 216.866 60.267 201.99 68.4502 187.113C73.3601 178.323 71.7235 166.441 68.3539 157.361C66.9098 153.4 64.6955 149.246 61.8073 145.865C74.5154 149.826 82.6986 164.799 83.2763 177.84C83.7576 189.432 77.9812 200.058 69.5092 207.593C54.5868 220.827 23.8758 227.299 11.0714 207.303C8.8572 203.825 7.22048 199.961 6.16152 196.001C3.94729 187.79 4.13979 178.999 5.29507 170.691C8.47207 149.343 18.8695 130.12 32.0589 112.828C44.6707 99.9806 58.149 87.8091 72.59 77.2797C83.7576 69.4551 95.503 62.5965 107.826 57.0903Z" fill="#F5F5F5"/>
</svg>
