<svg width="25" height="25" fill="none" xmlns="http://www.w3.org/2000/svg"><g clip-path="url(#clip0)"><path d="M11.872 2.037l7.813 13.532a4.687 4.687 0 1 1-8.12 4.687L4.536 8.078a3.125 3.125 0 0 1 5.412-3.125l7.031 12.178a1.562 1.562 0 1 1-2.706 1.563L8.022 7.869l-1.353.78 6.25 10.826a3.125 3.125 0 0 0 5.412-3.125l-7.03-12.178a4.687 4.687 0 1 0-8.12 4.687l7.422 12.855c1.875 2.477 5.387 3.205 8.147 1.611 2.76-1.593 3.886-5 2.678-7.86l-8.203-14.21-1.353.781z" fill="#2387AA"/></g><defs><clipPath id="clip0"><path fill="#fff" d="M0 0h25v25H0z"/></clipPath></defs></svg>