<svg width="16" height="16" viewBox="0 0 16 16" fill="none" xmlns="http://www.w3.org/2000/svg">
<path d="M8 15.5C3.85775 15.5 0.5 12.1423 0.5 8.00001C0.5 3.85776 3.85775 0.500008 8 0.500008C12.1423 0.500008 15.5 3.85776 15.5 8.00001C15.5 12.1423 12.1423 15.5 8 15.5ZM8 14C9.5913 14 11.1174 13.3679 12.2426 12.2427C13.3679 11.1174 14 9.59131 14 8.00001C14 6.40871 13.3679 4.88259 12.2426 3.75737C11.1174 2.63215 9.5913 2.00001 8 2.00001C6.4087 2.00001 4.88258 2.63215 3.75736 3.75737C2.63214 4.88259 2 6.40871 2 8.00001C2 9.59131 2.63214 11.1174 3.75736 12.2427C4.88258 13.3679 6.4087 14 8 14ZM8.75 8.00001H11.75V9.50001H7.25V4.25001H8.75V8.00001Z" fill="black" fill-opacity="0.5"/>
</svg>
