<svg width="20" height="20" viewBox="0 0 20 20" fill="none" xmlns="http://www.w3.org/2000/svg">
<path d="M1.9305 13.3333V1.90476H0V0H2.89576C3.15176 0 3.39727 0.10034 3.57829 0.278946C3.75931 0.457552 3.86101 0.699794 3.86101 0.952381V12.381H15.8668L17.7973 4.7619H5.79151V2.85714H19.0348C19.1815 2.85715 19.3263 2.89015 19.4581 2.95365C19.59 3.01715 19.7054 3.10948 19.7957 3.22361C19.886 3.33774 19.9487 3.47067 19.9791 3.6123C20.0095 3.75392 20.0067 3.90052 19.9711 4.04095L17.5579 13.5648C17.5056 13.7707 17.3851 13.9535 17.2155 14.0841C17.0458 14.2148 16.8368 14.2857 16.6216 14.2857H2.89576C2.63976 14.2857 2.39424 14.1854 2.21322 14.0068C2.0322 13.8282 1.9305 13.5859 1.9305 13.3333ZM3.86101 20C3.34901 20 2.85798 19.7993 2.49594 19.4421C2.1339 19.0849 1.9305 18.6004 1.9305 18.0952C1.9305 17.5901 2.1339 17.1056 2.49594 16.7484C2.85798 16.3912 3.34901 16.1905 3.86101 16.1905C4.37301 16.1905 4.86404 16.3912 5.22608 16.7484C5.58812 17.1056 5.79151 17.5901 5.79151 18.0952C5.79151 18.6004 5.58812 19.0849 5.22608 19.4421C4.86404 19.7993 4.37301 20 3.86101 20ZM15.444 20C14.932 20 14.441 19.7993 14.079 19.4421C13.7169 19.0849 13.5135 18.6004 13.5135 18.0952C13.5135 17.5901 13.7169 17.1056 14.079 16.7484C14.441 16.3912 14.932 16.1905 15.444 16.1905C15.956 16.1905 16.4471 16.3912 16.8091 16.7484C17.1711 17.1056 17.3745 17.5901 17.3745 18.0952C17.3745 18.6004 17.1711 19.0849 16.8091 19.4421C16.4471 19.7993 15.956 20 15.444 20Z" fill="white" fill-opacity="0.95"/>
</svg>
