<svg width="14" height="8" viewBox="0 0 14 8" fill="none" xmlns="http://www.w3.org/2000/svg">
<path d="M12.8772 1.11594C12.7118 0.961353 12.4431 0.961353 12.2777 1.11594L7.0058 6.05314L1.72359 1.11594C1.5582 0.961353 1.28944 0.961353 1.12404 1.11594C0.958652 1.27053 0.958652 1.52174 1.12404 1.67633L6.69569 6.88406C6.77839 6.96135 6.88176 7 6.99546 7C7.09883 7 7.21254 6.96135 7.29524 6.88406L12.8669 1.67633C13.0426 1.52174 13.0426 1.27053 12.8772 1.11594Z" fill="black" fill-opacity="0.75"/>
<path d="M12.107 0.933301L12.1068 0.933468L7.00563 5.71078L1.8943 0.933301C1.63282 0.6889 1.21481 0.6889 0.953333 0.933301C0.682222 1.1867 0.682222 1.60557 0.953333 1.85897L6.52498 7.0667C6.65648 7.18961 6.82187 7.25 6.99546 7.25C7.1556 7.25 7.33233 7.19159 7.46595 7.0667L13.0351 1.86126C13.3195 1.60803 13.3194 1.18703 13.0479 0.933301C12.7864 0.6889 12.3684 0.6889 12.107 0.933301Z" stroke="black" stroke-opacity="0.75" stroke-width="0.5"/>
</svg>
