<svg width="299" height="299" viewBox="0 0 299 299" fill="none" xmlns="http://www.w3.org/2000/svg">
<path fill-rule="evenodd" clip-rule="evenodd" d="M149.5 299C232.067 299 299 232.067 299 149.5C299 66.9334 232.067 0 149.5 0C66.9334 0 0 66.9334 0 149.5C0 232.067 66.9334 299 149.5 299ZM149.5 250C205.005 250 250 205.005 250 149.5C250 93.9954 205.005 49 149.5 49C93.9954 49 49 93.9954 49 149.5C49 205.005 93.9954 250 149.5 250ZM238 149.5C238 198.377 198.377 238 149.5 238C100.623 238 61 198.377 61 149.5C61 100.623 100.623 61 149.5 61C198.377 61 238 100.623 238 149.5ZM149.5 207C181.256 207 207 181.256 207 149.5C207 117.744 181.256 92 149.5 92C117.744 92 92 117.744 92 149.5C92 181.256 117.744 207 149.5 207Z" fill="#5D77E6" fill-opacity="0.1"/>
</svg>
