<svg width="20" height="20" viewBox="0 0 20 20" fill="none" xmlns="http://www.w3.org/2000/svg">
<path d="M10.0003 18.3333C5.39783 18.3333 1.66699 14.6025 1.66699 10C1.66699 5.3975 5.39783 1.66666 10.0003 1.66666C14.6028 1.66666 18.3337 5.3975 18.3337 10C18.3337 14.6025 14.6028 18.3333 10.0003 18.3333ZM10.0003 16.6667C11.7684 16.6667 13.4641 15.9643 14.7144 14.714C15.9646 13.4638 16.667 11.7681 16.667 10C16.667 8.23189 15.9646 6.5362 14.7144 5.28595C13.4641 4.03571 11.7684 3.33333 10.0003 3.33333C8.23222 3.33333 6.53652 4.03571 5.28628 5.28595C4.03604 6.5362 3.33366 8.23189 3.33366 10C3.33366 11.7681 4.03604 13.4638 5.28628 14.714C6.53652 15.9643 8.23222 16.6667 10.0003 16.6667ZM10.8337 10H14.167V11.6667H9.16699V5.83333H10.8337V10Z" fill="#5F5F5F"/>
</svg>
